advent_pro_bld_it.ufo
<glyph name="exclam" format="1">
  <advance width="194"/>
  <unicode hex="0021"/>
  <outline>
    <contour>
      <point x="175.036" y="640" type="line"/>
      <point x="184.956" y="686.667"/>
      <point x="208.157" y="708"/>
      <point x="245.49" y="708" type="curve" smooth="yes"/>
      <point x="285.49" y="708"/>
      <point x="300.743" y="685.667"/>
      <point x="291.249" y="641" type="curve"/>
      <point x="158.507" y="120" type="line"/>
      <point x="82.5068" y="120" type="line"/>
    </contour>
    <contour>
      <point x="119.318" y="105" type="curve" smooth="yes"/>
      <point x="152.652" y="105"/>
      <point x="172.65" y="78.3333"/>
      <point x="165.565" y="45" type="curve" smooth="yes"/>
      <point x="158.48" y="11.6667"/>
      <point x="127.145" y="-15"/>
      <point x="93.8116" y="-15" type="curve" smooth="yes"/>
      <point x="61.8116" y="-15"/>
      <point x="40.4798" y="11.6667"/>
      <point x="47.565" y="45" type="curve" smooth="yes"/>
      <point x="54.6503" y="78.3333"/>
      <point x="87.3184" y="105"/>
    </contour>
  </outline>
</glyph>
<glyph name="parenleft" format="1">
  <advance width="240"/>
  <unicode hex="0028"/>
  <outline>
    <contour>
      <point x="368.954" y="729" type="line"/>
      <point x="369.369" y="728.34"/>
      <point x="297.566" y="701.562"/>
      <point x="277.809" y="606" type="curve" smooth="yes"/>
      <point x="217.461" y="322.083"/>
      <point x="188.199" y="184.417"/>
      <point x="170.893" y="103" type="curve" smooth="yes"/>
      <point x="147.629" y="-1.22222"/>
      <point x="208.719" y="-34.7778"/>
      <point x="207.561" y="-35" type="curve"/>
      <point x="135.343" y="-116" type="line"/>
      <point x="48.5506" y="-59.9811"/>
      <point x="42.7612" y="12.9902"/>
      <point x="59.9804" y="94" type="curve" smooth="yes"/>
      <point x="168.384" y="604" type="line" smooth="yes"/>
      <point x="185.124" y="682.755"/>
      <point x="230.286" y="764.45"/>
      <point x="332.446" y="816" type="curve"/>
    </contour>
  </outline>
</glyph>
<glyph name="asterisk" format="1">
  <advance width="381"/>
  <unicode hex="002A"/>
  <outline>
    <contour>
      <point x="203.799" y="653" type="line"/>
      <point x="286.558" y="586" type="line"/>
      <point x="277.364" y="698" type="line"/>
      <point x="397.364" y="698" type="line"/>
      <point x="339.558" y="586" type="line"/>
      <point x="447.012" y="654" type="line"/>
      <point x="469.694" y="549" type="line"/>
      <point x="346.568" y="539" type="line"/>
      <point x="426.626" y="464" type="line"/>
      <point x="310.172" y="396" type="line"/>
      <point x="297.254" y="514" type="line"/>
      <point x="234.172" y="396" type="line"/>
      <point x="151.051" y="466" type="line"/>
      <point x="257.781" y="540" type="line"/>
      <point x="142.906" y="550" type="line"/>
    </contour>
  </outline>
</glyph>
<glyph name="comma" format="1">
  <advance width="187"/>
  <unicode hex="002C"/>
  <outline>
    <contour>
      <point x="46.9713" y="-66" type="line"/>
      <point x="61.6057" y="-47.3333"/>
      <point x="69.0484" y="-28"/>
      <point x="77.2995" y="-8" type="curve"/>
      <point x="52.0499" y="-1.33333"/>
      <point x="38.6762" y="22"/>
      <point x="44.6278" y="50" type="curve" smooth="yes"/>
      <point x="51.4296" y="82"/>
      <point x="83.8353" y="109"/>
      <point x="117.169" y="109" type="curve" smooth="yes"/>
      <point x="149.169" y="109"/>
      <point x="169.43" y="82"/>
      <point x="162.628" y="50" type="curve" smooth="yes"/>
      <point x="145.046" y="-40.5556"/>
      <point x="65.6675" y="-83.1111"/>
      <point x="67.3578" y="-83" type="curve"/>
    </contour>
  </outline>
</glyph>
<glyph name="period" format="1">
  <advance width="189"/>
  <unicode hex="002E"/>
  <outline>
    <contour>
      <point x="115.893" y="103" type="curve" smooth="yes"/>
      <point x="149.227" y="103"/>
      <point x="171.225" y="76.3333"/>
      <point x="164.14" y="43" type="curve" smooth="yes"/>
      <point x="157.055" y="9.66667"/>
      <point x="123.72" y="-17"/>
      <point x="90.3865" y="-17" type="curve" smooth="yes"/>
      <point x="57.0532" y="-17"/>
      <point x="37.0547" y="9.66667"/>
      <point x="44.1399" y="43" type="curve" smooth="yes"/>
      <point x="51.2252" y="76.3333"/>
      <point x="82.56" y="103"/>
    </contour>
  </outline>
</glyph>
<glyph name="four" format="1">
  <advance width="540"/>
  <unicode hex="0034"/>
  <outline>
    <contour>
      <point x="333" y="0" type="line"/>
      <point x="398.042" y="306" type="line"/>
      <point x="84.0423" y="306" type="line"/>
      <point x="360.364" y="698" type="line"/>
      <point x="472.364" y="698" type="line"/>
      <point x="284.786" y="413" type="line"/>
      <point x="420.786" y="413" type="line"/>
      <point x="481.364" y="698" type="line"/>
      <point x="591.364" y="698" type="line"/>
      <point x="530.786" y="413" type="line"/>
      <point x="599.786" y="413" type="line"/>
      <point x="558.042" y="306" type="line"/>
      <point x="508.042" y="306" type="line"/>
      <point x="443" y="0" type="line"/>
    </contour>
  </outline>
</glyph>
<glyph name="five" format="1">
  <advance width="444"/>
  <unicode hex="0035"/>
  <outline>
    <contour>
      <point x="272.361" y="411" type="line"/>
      <point x="282.361" y="411" type="line"/>
      <point x="431.62" y="406.997"/>
      <point x="480.224" y="311.558"/>
      <point x="456.299" y="199" type="curve" smooth="yes"/>
      <point x="436.9" y="107.737"/>
      <point x="339.621" y="-12"/>
      <point x="199.449" y="-12" type="curve"/>
      <point x="98.452" y="-13.5556"/>
      <point x="28.5914" y="43.5555"/>
      <point x="28.9274" y="42" type="curve"/>
      <point x="89.1202" y="137" type="line"/>
      <point x="88.8911" y="138.667"/>
      <point x="134.597" y="95.3334"/>
      <point x="220.618" y="97" type="curve"/>
      <point x="288.729" y="97"/>
      <point x="335.98" y="145.749"/>
      <point x="348.361" y="204" type="curve" smooth="yes"/>
      <point x="364.633" y="280.549"/>
      <point x="321.047" y="310"/>
      <point x="234.892" y="310" type="curve" smooth="yes"/>
      <point x="134.892" y="310" type="line"/>
      <point x="240.364" y="698" type="line"/>
      <point x="506.364" y="698" type="line"/>
      <point x="482.983" y="588" type="line"/>
      <point x="318.983" y="588" type="line"/>
    </contour>
  </outline>
</glyph>
<glyph name="six" format="1">
  <advance width="486"/>
  <unicode hex="0036"/>
  <outline>
    <contour>
      <point x="400.109" y="598" type="line" smooth="yes"/>
      <point x="307" y="598"/>
      <point x="253" y="521"/>
      <point x="234.887" y="437" type="curve" smooth="yes"/>
      <point x="223.622" y="384" type="line"/>
      <point x="245" y="400"/>
      <point x="298" y="413"/>
      <point x="328" y="413" type="curve" smooth="yes"/>
      <point x="451" y="413"/>
      <point x="527" y="326"/>
      <point x="501.362" y="204" type="curve" smooth="yes"/>
      <point x="476" y="87"/>
      <point x="365" y="-10"/>
      <point x="243.874" y="-10" type="curve" smooth="yes"/>
      <point x="122" y="-10"/>
      <point x="53" y="87"/>
      <point x="77.3615" y="204" type="curve" smooth="yes"/>
      <point x="131.776" y="460" type="line" smooth="yes"/>
      <point x="163" y="606"/>
      <point x="275" y="698"/>
      <point x="426.364" y="698" type="curve" smooth="yes"/>
      <point x="460.364" y="698" type="line"/>
      <point x="439.109" y="598" type="line"/>
    </contour>
    <contour>
      <point x="310.83" y="305" type="curve" smooth="yes"/>
      <point x="255.526" y="305"/>
      <point x="196.842" y="258.011"/>
      <point x="184.936" y="202" type="curve" smooth="yes"/>
      <point x="172.872" y="145.24"/>
      <point x="211.35" y="98"/>
      <point x="266.831" y="98" type="curve" smooth="yes"/>
      <point x="323.69" y="98"/>
      <point x="379.884" y="145.296"/>
      <point x="391.936" y="202" type="curve" smooth="yes"/>
      <point x="403.854" y="258.067"/>
      <point x="367.866" y="305"/>
    </contour>
  </outline>
</glyph>
<glyph name="eight" format="1">
  <advance width="486"/>
  <unicode hex="0038"/>
  <outline>
    <contour>
      <point x="393.49" y="708" type="curve" smooth="yes"/>
      <point x="442.157" y="708"/>
      <point x="479.806" y="690.667"/>
      <point x="506.437" y="656" type="curve" smooth="yes"/>
      <point x="533.735" y="621.333"/>
      <point x="542.566" y="581.333"/>
      <point x="532.08" y="532" type="curve" smooth="yes"/>
      <point x="524.995" y="498.667"/>
      <point x="510.952" y="468.667"/>
      <point x="489.95" y="442" type="curve" smooth="yes"/>
      <point x="472.082" y="420.667"/>
      <point x="450.256" y="402.667"/>
      <point x="424.472" y="388" type="curve"/>
      <point x="440.871" y="377.333"/>
      <point x="456.179" y="364.667"/>
      <point x="466.395" y="350" type="curve"/>
      <point x="498.176" y="311.333"/>
      <point x="509.91" y="258.333"/>
      <point x="497.724" y="201" type="curve" smooth="yes"/>
      <point x="485.254" y="142.333"/>
      <point x="453.08" y="91.3333"/>
      <point x="401.628" y="50" type="curve" smooth="yes"/>
      <point x="351.509" y="8.66667"/>
      <point x="297.449" y="-12"/>
      <point x="239.449" y="-12" type="curve" smooth="yes"/>
      <point x="180.783" y="-12"/>
      <point x="135.176" y="8.66667"/>
      <point x="102.628" y="50" type="curve" smooth="yes"/>
      <point x="70.0802" y="91.3333"/>
      <point x="59.2539" y="142.333"/>
      <point x="71.7239" y="201" type="curve" smooth="yes"/>
      <point x="82.4934" y="251.667"/>
      <point x="110.725" y="296.667"/>
      <point x="147.994" y="334" type="curve" smooth="yes"/>
      <point x="170.145" y="356.667"/>
      <point x="196.184" y="375.667"/>
      <point x="225.685" y="389" type="curve"/>
      <point x="206.277" y="404.333"/>
      <point x="193.032" y="422"/>
      <point x="185.95" y="442" type="curve"/>
      <point x="174.285" y="468.667"/>
      <point x="174.995" y="498.667"/>
      <point x="182.08" y="532" type="curve" smooth="yes"/>
      <point x="192.424" y="580.667"/>
      <point x="217.877" y="622"/>
      <point x="258.437" y="656" type="curve" smooth="yes"/>
      <point x="298.472" y="690.667"/>
      <point x="343.49" y="708"/>
    </contour>
    <contour>
      <point x="341.051" y="466" type="curve" smooth="yes"/>
      <point x="359.718" y="466"/>
      <point x="380.319" y="476.667"/>
      <point x="395.153" y="490" type="curve" smooth="yes"/>
      <point x="408.087" y="500.667"/>
      <point x="418.892" y="517"/>
      <point x="422.293" y="533" type="curve" smooth="yes"/>
      <point x="430.403" y="571.156"/>
      <point x="406.825" y="599"/>
      <point x="369.321" y="599" type="curve" smooth="yes"/>
      <point x="332.806" y="599"/>
      <point x="296.386" y="571.075"/>
      <point x="288.293" y="533" type="curve" smooth="yes"/>
      <point x="284.892" y="517"/>
      <point x="287.512" y="502.667"/>
      <point x="296.153" y="490" type="curve" smooth="yes"/>
      <point x="303.985" y="476.667"/>
      <point x="321.051" y="466"/>
    </contour>
    <contour>
      <point x="262.405" y="96" type="curve" smooth="yes"/>
      <point x="319.953" y="96"/>
      <point x="376.344" y="142.757"/>
      <point x="388.724" y="201" type="curve" smooth="yes"/>
      <point x="395.809" y="234.333"/>
      <point x="387.64" y="263.333"/>
      <point x="368.941" y="282" type="curve" smooth="yes"/>
      <point x="353.392" y="296.667"/>
      <point x="333.709" y="306"/>
      <point x="307.042" y="306" type="curve" smooth="yes"/>
      <point x="277.709" y="306"/>
      <point x="245.017" y="293.333"/>
      <point x="221.815" y="272" type="curve" smooth="yes"/>
      <point x="201.848" y="253.333"/>
      <point x="185.392" y="227.667"/>
      <point x="179.724" y="201" type="curve" smooth="yes"/>
      <point x="167.319" y="142.638"/>
      <point x="204.04" y="96"/>
    </contour>
  </outline>
</glyph>
<glyph name="colon" format="1">
  <advance width="196"/>
  <unicode hex="003A"/>
  <outline>
    <contour>
      <point x="187.396" y="143" type="curve" smooth="yes"/>
      <point x="180.31" y="109.667"/>
      <point x="147.188" y="84"/>
      <point x="113.855" y="84" type="curve" smooth="yes"/>
      <point x="80.5214" y="84"/>
      <point x="61.3104" y="109.667"/>
      <point x="68.3956" y="143" type="curve" smooth="yes"/>
      <point x="75.4808" y="176.333"/>
      <point x="106.028" y="204"/>
      <point x="139.362" y="204" type="curve" smooth="yes"/>
      <point x="172.695" y="204"/>
      <point x="194.481" y="176.333"/>
    </contour>
    <contour>
      <point x="238.834" y="385" type="curve" smooth="yes"/>
      <point x="231.749" y="351.667"/>
      <point x="198.202" y="324"/>
      <point x="164.868" y="324" type="curve" smooth="yes"/>
      <point x="131.535" y="324"/>
      <point x="112.749" y="351.667"/>
      <point x="119.834" y="385" type="curve" smooth="yes"/>
      <point x="126.636" y="417"/>
      <point x="157.042" y="444"/>
      <point x="190.375" y="444" type="curve" smooth="yes"/>
      <point x="223.708" y="444"/>
      <point x="245.636" y="417"/>
    </contour>
  </outline>
</glyph>
<glyph name="semicolon" format="1">
  <advance width="195"/>
  <unicode hex="003B"/>
  <outline>
    <contour>
      <point x="68.9516" y="28" type="line"/>
      <point x="83.3026" y="45.3333"/>
      <point x="93.4329" y="66.3333"/>
      <point x="100.067" y="85" type="curve"/>
      <point x="74.8177" y="91.6667"/>
      <point x="61.7274" y="116.333"/>
      <point x="67.3956" y="143" type="curve" smooth="yes"/>
      <point x="74.4808" y="176.333"/>
      <point x="105.603" y="202"/>
      <point x="138.936" y="202" type="curve" smooth="yes"/>
      <point x="170.936" y="202"/>
      <point x="192.481" y="176.333"/>
      <point x="185.396" y="143" type="curve" smooth="yes"/>
      <point x="167.696" y="51.8889"/>
      <point x="88.7659" y="11.4444"/>
      <point x="90.3381" y="11" type="curve"/>
    </contour>
    <contour>
      <point x="238.834" y="385" type="curve" smooth="yes"/>
      <point x="231.749" y="351.667"/>
      <point x="198.202" y="324"/>
      <point x="164.868" y="324" type="curve" smooth="yes"/>
      <point x="131.535" y="324"/>
      <point x="112.749" y="351.667"/>
      <point x="119.834" y="385" type="curve" smooth="yes"/>
      <point x="126.636" y="417"/>
      <point x="157.042" y="444"/>
      <point x="190.375" y="444" type="curve" smooth="yes"/>
      <point x="223.708" y="444"/>
      <point x="245.636" y="417"/>
    </contour>
  </outline>
</glyph>
<glyph name="equal" format="1">
  <advance width="394"/>
  <unicode hex="003D"/>
  <outline>
    <contour>
      <point x="111.67" y="356" type="line"/>
      <point x="133.989" y="461" type="line"/>
      <point x="453.989" y="461" type="line"/>
      <point x="431.67" y="356" type="line"/>
    </contour>
    <contour>
      <point x="79.3615" y="204" type="line"/>
      <point x="101.68" y="309" type="line"/>
      <point x="421.68" y="309" type="line"/>
      <point x="399.362" y="204" type="line"/>
    </contour>
  </outline>
</glyph>
<glyph name="at" format="1">
  <advance width="817"/>
  <unicode hex="0040"/>
  <outline>
    <contour>
      <point x="876.211" y="415" type="line"/>
      <point x="831.201" y="394.657"/>
      <point x="823.221" y="372.705"/>
      <point x="815.206" y="335" type="curve" smooth="yes"/>
      <point x="781.835" y="178" type="line" smooth="yes"/>
      <point x="752.191" y="38.5342"/>
      <point x="632.722" y="-94"/>
      <point x="374.02" y="-94" type="curve" smooth="yes"/>
      <point x="162.488" y="-94"/>
      <point x="32.6139" y="-1.81661"/>
      <point x="72.1104" y="184" type="curve" smooth="yes"/>
      <point x="101.656" y="323" type="line" smooth="yes"/>
      <point x="143.955" y="522.001"/>
      <point x="262.165" y="604"/>
      <point x="438.384" y="604" type="curve" smooth="yes"/>
      <point x="579.056" y="604"/>
      <point x="677.639" y="576.971"/>
      <point x="649.163" y="443" type="curve"/>
      <point x="696" y="443" type="line"/>
      <point x="672" y="345" type="line"/>
      <point x="631.332" y="345" type="line"/>
      <point x="572.879" y="70" type="line"/>
      <point x="573.815" y="69.6667"/>
      <point x="451" y="61"/>
      <point x="372.966" y="61" type="curve" smooth="yes"/>
      <point x="250" y="61"/>
      <point x="229" y="142"/>
      <point x="248.738" y="234" type="curve" smooth="yes"/>
      <point x="259.579" y="285" type="line" smooth="yes"/>
      <point x="285" y="402"/>
      <point x="353.352" y="443"/>
      <point x="432.163" y="443" type="curve" smooth="yes"/>
      <point x="543.163" y="443" type="line"/>
      <point x="554.499" y="496.333"/>
      <point x="506.462" y="504"/>
      <point x="421.129" y="504" type="curve" smooth="yes"/>
      <point x="274.167" y="504"/>
      <point x="229.982" y="442.151"/>
      <point x="206.144" y="330" type="curve" smooth="yes"/>
      <point x="184.038" y="226" type="line" smooth="yes"/>
      <point x="151.002" y="70.58"/>
      <point x="210.064" y="5"/>
      <point x="399.063" y="5" type="curve" smooth="yes"/>
      <point x="563.216" y="5"/>
      <point x="655.319" y="57.9563"/>
      <point x="677.434" y="162" type="curve" smooth="yes"/>
      <point x="716.97" y="348" type="line" smooth="yes"/>
      <point x="731.197" y="414.933"/>
      <point x="761.97" y="465.985"/>
      <point x="859.877" y="484" type="curve"/>
    </contour>
    <contour>
      <point x="439.332" y="345" type="line" smooth="yes"/>
      <point x="417.039" y="345"/>
      <point x="379.476" y="331.565"/>
      <point x="368.941" y="282" type="curve" smooth="yes"/>
      <point x="358.526" y="233" type="line" smooth="yes"/>
      <point x="344.639" y="167.667"/>
      <point x="366" y="153"/>
      <point x="411.521" y="153" type="curve" smooth="yes"/>
      <point x="435" y="153"/>
      <point x="457.585" y="153.3"/>
      <point x="485.159" y="156" type="curve"/>
      <point x="525.332" y="345" type="line"/>
    </contour>
  </outline>
</glyph>
<glyph name="B" format="1">
  <advance width="507"/>
  <unicode hex="0042"/>
  <outline>
    <contour>
      <point x="374" y="700" type="line" smooth="yes"/>
      <point x="505" y="700"/>
      <point x="573" y="626"/>
      <point x="549" y="514" type="curve" smooth="yes"/>
      <point x="536" y="453"/>
      <point x="504" y="413"/>
      <point x="454" y="382" type="curve"/>
      <point x="498" y="360"/>
      <point x="539" y="297"/>
      <point x="519" y="206" type="curve" smooth="yes"/>
      <point x="493" y="81"/>
      <point x="400" y="0"/>
      <point x="261" y="0" type="curve" smooth="yes"/>
      <point x="41" y="0" type="line"/>
      <point x="190" y="700" type="line"/>
    </contour>
    <contour>
      <point x="288" y="414" type="line" smooth="yes"/>
      <point x="366" y="414"/>
      <point x="404" y="437"/>
      <point x="419" y="507" type="curve" smooth="yes"/>
      <point x="432" y="569"/>
      <point x="403" y="590"/>
      <point x="335" y="590" type="curve" smooth="yes"/>
      <point x="277" y="590" type="line"/>
      <point x="240" y="414" type="line"/>
    </contour>
    <contour>
      <point x="253" y="102" type="line" smooth="yes"/>
      <point x="302" y="102"/>
      <point x="375" y="121"/>
      <point x="393" y="208" type="curve" smooth="yes"/>
      <point x="407" y="275"/>
      <point x="373" y="308"/>
      <point x="288" y="308" type="curve" smooth="yes"/>
      <point x="217" y="308" type="line"/>
      <point x="173" y="102" type="line"/>
    </contour>
  </outline>
</glyph>
<glyph name="E" format="1">
  <advance width="410"/>
  <unicode hex="0045"/>
  <outline>
    <contour>
      <point x="41" y="0" type="line"/>
      <point x="189.364" y="698" type="line"/>
      <point x="523.364" y="698" type="line"/>
      <point x="499.983" y="588" type="line"/>
      <point x="275.983" y="588" type="line"/>
      <point x="238.786" y="413" type="line"/>
      <point x="375.786" y="413" type="line"/>
      <point x="331" y="308" type="line"/>
      <point x="216.467" y="308" type="line"/>
      <point x="172.256" y="100" type="line"/>
      <point x="394.256" y="100" type="line"/>
      <point x="373" y="0" type="line"/>
    </contour>
  </outline>
</glyph>
<glyph name="F" format="1">
  <advance width="394"/>
  <unicode hex="0046"/>
  <outline>
    <contour>
      <point x="523.365" y="698" type="line"/>
      <point x="499.983" y="588" type="line"/>
      <point x="275.983" y="588" type="line"/>
      <point x="238.786" y="413" type="line"/>
      <point x="375.786" y="413" type="line"/>
      <point x="331" y="308" type="line"/>
      <point x="216.467" y="308" type="line"/>
      <point x="151" y="0" type="line"/>
      <point x="41" y="0" type="line"/>
      <point x="189.364" y="698" type="line"/>
    </contour>
  </outline>
</glyph>
<glyph name="G" format="1">
  <advance width="480"/>
  <unicode hex="0047"/>
  <outline>
    <contour>
      <point x="470.458" y="588" type="line"/>
      <point x="440.725" y="598.667"/>
      <point x="411.284" y="606"/>
      <point x="383.284" y="606" type="curve" smooth="yes"/>
      <point x="315.836" y="606"/>
      <point x="268.733" y="582"/>
      <point x="253" y="506" type="curve" smooth="yes"/>
      <point x="185.756" y="187" type="line" smooth="yes"/>
      <point x="172.35" y="123"/>
      <point x="190.667" y="92"/>
      <point x="256" y="92" type="curve" smooth="yes"/>
      <point x="313.51" y="92"/>
      <point x="364.197" y="127.925"/>
      <point x="376.544" y="186" type="curve" smooth="yes"/>
      <point x="378.457" y="195" type="line"/>
      <point x="321.457" y="195" type="line"/>
      <point x="308.78" y="300" type="line"/>
      <point x="510.78" y="300" type="line"/>
      <point x="447" y="0" type="line"/>
      <point x="371" y="0" type="line"/>
      <point x="371.953" y="28" type="line"/>
      <point x="331.685" y="-0.220549"/>
      <point x="269.087" y="-9"/>
      <point x="244.874" y="-10" type="curve" smooth="yes"/>
      <point x="130.236" y="-13"/>
      <point x="47.4804" y="54"/>
      <point x="76.1814" y="189" type="curve" smooth="yes"/>
      <point x="142.725" y="502" type="line" smooth="yes"/>
      <point x="172.489" y="642"/>
      <point x="260.521" y="708"/>
      <point x="392.521" y="708" type="curve" smooth="yes"/>
      <point x="439.521" y="708"/>
      <point x="480.424" y="695"/>
      <point x="515.505" y="675" type="curve"/>
    </contour>
  </outline>
</glyph>
<glyph name="L" format="1">
  <advance width="428"/>
  <unicode hex="004C"/>
  <outline>
    <contour>
      <point x="41" y="0" type="line"/>
      <point x="189.395" y="698" type="line"/>
      <point x="299.395" y="698" type="line"/>
      <point x="172.473" y="101" type="line"/>
      <point x="423.473" y="101" type="line"/>
      <point x="402" y="0" type="line"/>
    </contour>
  </outline>
</glyph>
<glyph name="M" format="1">
  <advance width="620"/>
  <unicode hex="004D"/>
  <outline>
    <contour>
      <point x="299.364" y="698" type="line"/>
      <point x="352" y="207" type="line"/>
      <point x="615.365" y="698" type="line"/>
      <point x="725.365" y="698" type="line"/>
      <point x="577" y="0" type="line"/>
      <point x="467" y="0" type="line"/>
      <point x="545.646" y="370" type="line"/>
      <point x="350" y="0" type="line"/>
      <point x="267" y="0" type="line"/>
      <point x="229.433" y="369" type="line"/>
      <point x="151" y="0" type="line"/>
      <point x="41" y="0" type="line"/>
      <point x="189.364" y="698" type="line"/>
    </contour>
  </outline>
</glyph>
<glyph name="S" format="1">
  <advance width="544"/>
  <unicode hex="0053"/>
  <outline>
    <contour>
      <point x="539.032" y="574" type="line"/>
      <point x="503.072" y="593"/>
      <point x="461.836" y="606"/>
      <point x="416.836" y="606" type="curve" smooth="yes"/>
      <point x="372.836" y="606"/>
      <point x="300.434" y="590"/>
      <point x="288.741" y="535" type="curve" smooth="yes"/>
      <point x="263.442" y="416"/>
      <point x="607.268" y="434"/>
      <point x="557.095" y="198" type="curve" smooth="yes"/>
      <point x="525.843" y="51"/>
      <point x="400.449" y="-12"/>
      <point x="266.449" y="-12" type="curve" smooth="yes"/>
      <point x="179.449" y="-12"/>
      <point x="95.315" y="25"/>
      <point x="49.9214" y="89" type="curve"/>
      <point x="121.803" y="159" type="line"/>
      <point x="159.024" y="113"/>
      <point x="220.559" y="92"/>
      <point x="285.559" y="92" type="curve" smooth="yes"/>
      <point x="350.559" y="92"/>
      <point x="421.425" y="129"/>
      <point x="436.52" y="200" type="curve" smooth="yes"/>
      <point x="467.56" y="346"/>
      <point x="129.394" y="317"/>
      <point x="177.442" y="543" type="curve" smooth="yes"/>
      <point x="203.804" y="667"/>
      <point x="330.521" y="708"/>
      <point x="435.521" y="708" type="curve" smooth="yes"/>
      <point x="491.521" y="708"/>
      <point x="548.395" y="698"/>
      <point x="592.655" y="671" type="curve"/>
    </contour>
  </outline>
</glyph>
<glyph name="U" format="1">
  <advance width="501"/>
  <unicode hex="0055"/>
  <outline>
    <contour>
      <point x="500" y="186" type="line" smooth="yes"/>
      <point x="473" y="60"/>
      <point x="375" y="-11"/>
      <point x="248" y="-11" type="curve" smooth="yes"/>
      <point x="123" y="-11"/>
      <point x="52" y="58"/>
      <point x="79" y="186" type="curve" smooth="yes"/>
      <point x="188" y="700" type="line"/>
      <point x="299" y="700" type="line"/>
      <point x="193" y="205" type="line" smooth="yes"/>
      <point x="179" y="140"/>
      <point x="205" y="102"/>
      <point x="272" y="102" type="curve" smooth="yes"/>
      <point x="336" y="102"/>
      <point x="381" y="146"/>
      <point x="394" y="207" type="curve" smooth="yes"/>
      <point x="499" y="700" type="line"/>
      <point x="609" y="700" type="line"/>
    </contour>
  </outline>
</glyph>
<glyph name="W" format="1">
  <advance width="740"/>
  <unicode hex="0057"/>
  <outline>
    <contour>
      <point x="559" y="698" type="line"/>
      <point x="559" y="252" type="line"/>
      <point x="738" y="698" type="line"/>
      <point x="865" y="698" type="line"/>
      <point x="582" y="0" type="line"/>
      <point x="458" y="0" type="line"/>
      <point x="444" y="353" type="line"/>
      <point x="282" y="0" type="line"/>
      <point x="152" y="0" type="line"/>
      <point x="152" y="698" type="line"/>
      <point x="276" y="698" type="line"/>
      <point x="276" y="242" type="line"/>
      <point x="478" y="698" type="line"/>
    </contour>
  </outline>
</glyph>
<glyph name="Z" format="1">
  <advance width="556"/>
  <unicode hex="005A"/>
  <outline>
    <contour>
      <point x="662.365" y="698" type="line"/>
      <point x="638.983" y="588" type="line"/>
      <point x="192.318" y="105" type="line"/>
      <point x="542.318" y="105" type="line"/>
      <point x="520" y="0" type="line"/>
      <point x="32" y="0" type="line"/>
      <point x="53.4682" y="101" type="line"/>
      <point x="499.983" y="588" type="line"/>
      <point x="170.983" y="588" type="line"/>
      <point x="194.364" y="698" type="line"/>
    </contour>
  </outline>
</glyph>
<glyph name="asciicircum" format="1">
  <advance width="266"/>
  <unicode hex="005E"/>
  <outline>
    <contour>
      <point x="427.094" y="772" type="line"/>
      <point x="361.828" y="719" type="line"/>
      <point x="305.258" y="801" type="line"/>
      <point x="207.616" y="718" type="line"/>
      <point x="166.881" y="771" type="line"/>
      <point x="325.876" y="898" type="line"/>
    </contour>
  </outline>
</glyph>
<glyph name="underscore" format="1">
  <advance width="383"/>
  <unicode hex="005F"/>
  <outline>
    <contour>
      <point x="16.6331" y="-77" type="line"/>
      <point x="33" y="0" type="line"/>
      <point x="352" y="0" type="line"/>
      <point x="335.633" y="-77" type="line"/>
    </contour>
  </outline>
</glyph>
<glyph name="grave" format="1">
  <advance width="266"/>
  <unicode hex="0060"/>
  <outline>
    <contour>
      <point x="280.64" y="704" type="curve"/>
      <point x="285.771" y="587" type="line"/>
      <point x="241.771" y="587" type="line"/>
      <point x="199.925" y="663" type="line"/>
      <point x="186.559" y="681.667"/>
      <point x="188.282" y="718"/>
      <point x="221.017" y="734" type="curve" smooth="yes"/>
      <point x="250.801" y="748.667"/>
      <point x="275.641" y="730.667"/>
    </contour>
  </outline>
</glyph>
<glyph name="b" format="1">
  <advance width="457"/>
  <unicode hex="0062"/>
  <outline>
    <contour>
      <point x="253.452" y="482" type="line"/>
      <point x="300.087" y="500.667"/>
      <point x="339" y="505"/>
      <point x="384" y="505" type="curve" smooth="yes"/>
      <point x="458" y="505"/>
      <point x="522.859" y="460.392"/>
      <point x="501.308" y="359" type="curve"/>
      <point x="501.685" y="360.776"/>
      <point x="457.739" y="154.026"/>
      <point x="457.946" y="155" type="curve"/>
      <point x="424.332" y="25.0689"/>
      <point x="328.513" y="-11"/>
      <point x="214.662" y="-11" type="curve" smooth="yes"/>
      <point x="155.732" y="-11"/>
      <point x="99.1528" y="-2.6691"/>
      <point x="41" y="0" type="curve"/>
      <point x="189.364" y="698" type="line"/>
      <point x="299.364" y="698" type="line"/>
    </contour>
    <contour>
      <point x="170.98" y="94" type="curve"/>
      <point x="171.068" y="93.8889"/>
      <point x="213.255" y="91.1111"/>
      <point x="229.343" y="91" type="curve"/>
      <point x="321.736" y="91"/>
      <point x="341.178" y="123.158"/>
      <point x="351.985" y="174" type="curve" smooth="yes"/>
      <point x="355.504" y="190.556"/>
      <point x="384.246" y="325.778"/>
      <point x="388.332" y="345" type="curve" smooth="yes"/>
      <point x="396.345" y="382.699"/>
      <point x="359.489" y="394"/>
      <point x="329.747" y="394" type="curve" smooth="yes"/>
      <point x="283.081" y="394"/>
      <point x="241.73" y="376.667"/>
      <point x="229.646" y="370" type="curve"/>
      <point x="229.855" y="370.984"/>
      <point x="170.771" y="93.016"/>
    </contour>
  </outline>
</glyph>
<glyph name="h" format="1">
  <advance width="445"/>
  <unicode hex="0068"/>
  <outline>
    <contour>
      <point x="251.177" y="476" type="line"/>
      <point x="271.061" y="488"/>
      <point x="316.858" y="509"/>
      <point x="358.191" y="509" type="curve" smooth="yes"/>
      <point x="436.972" y="509"/>
      <point x="511.61" y="473.331"/>
      <point x="484.332" y="345" type="curve" smooth="yes"/>
      <point x="411" y="0" type="line"/>
      <point x="302" y="0" type="line"/>
      <point x="374.907" y="343" type="line" smooth="yes"/>
      <point x="383.027" y="381.2"/>
      <point x="359.565" y="409"/>
      <point x="316.936" y="409" type="curve" smooth="yes"/>
      <point x="294.269" y="409"/>
      <point x="267.448" y="402"/>
      <point x="232.047" y="386" type="curve"/>
      <point x="150" y="0" type="line"/>
      <point x="41" y="0" type="line"/>
      <point x="189.364" y="698" type="line"/>
      <point x="298.364" y="698" type="line"/>
    </contour>
  </outline>
</glyph>
<glyph name="i" format="1">
  <advance width="200"/>
  <unicode hex="0069"/>
  <outline>
    <contour>
      <point x="44" y="0" type="line"/>
      <point x="150.066" y="499" type="line"/>
      <point x="260.066" y="499" type="line"/>
      <point x="154" y="0" type="line"/>
    </contour>
    <contour>
      <point x="249.49" y="708" type="curve" smooth="yes"/>
      <point x="282.823" y="708"/>
      <point x="304.247" y="683.333"/>
      <point x="297.162" y="650" type="curve" smooth="yes"/>
      <point x="290.077" y="616.667"/>
      <point x="257.742" y="590"/>
      <point x="224.408" y="590" type="curve" smooth="yes"/>
      <point x="191.075" y="590"/>
      <point x="171.077" y="616.667"/>
      <point x="178.162" y="650" type="curve" smooth="yes"/>
      <point x="185.247" y="683.333"/>
      <point x="216.157" y="708"/>
    </contour>
  </outline>
</glyph>
<glyph name="k" format="1">
  <advance width="473"/>
  <unicode hex="006B"/>
  <outline>
    <contour>
      <point x="316" y="327" type="line"/>
      <point x="454" y="0" type="line"/>
      <point x="320" y="0" type="line"/>
      <point x="219" y="254" type="line"/>
      <point x="202.024" y="240" type="line"/>
      <point x="151" y="0" type="line"/>
      <point x="41" y="0" type="line"/>
      <point x="189.395" y="698" type="line"/>
      <point x="299.395" y="698" type="line"/>
      <point x="232.213" y="382" type="line"/>
      <point x="411.339" y="519" type="line"/>
      <point x="475.182" y="443" type="line"/>
    </contour>
  </outline>
</glyph>
<glyph name="l" format="1">
  <advance width="194"/>
  <unicode hex="006C"/>
  <outline>
    <contour>
      <point x="41" y="0" type="line"/>
      <point x="189.395" y="698" type="line"/>
      <point x="299.395" y="698" type="line"/>
      <point x="151" y="0" type="line"/>
    </contour>
  </outline>
</glyph>
<glyph name="s" format="1">
  <advance width="427"/>
  <unicode hex="0073"/>
  <outline>
    <contour>
      <point x="396.961" y="386.078" type="line"/>
      <point x="377.458" y="398.112"/>
      <point x="348.077" y="406.134"/>
      <point x="316.99" y="406.134" type="curve" smooth="yes"/>
      <point x="288.912" y="406.134"/>
      <point x="242.293" y="399.114"/>
      <point x="242.064" y="365.019" type="curve" smooth="yes"/>
      <point x="243.161" y="308.862"/>
      <point x="430.985" y="300.84"/>
      <point x="433.479" y="180.504" type="curve" smooth="yes"/>
      <point x="435.034" y="65.182"/>
      <point x="331.737" y="-15.042"/>
      <point x="218.421" y="-15.042" type="curve" smooth="yes"/>
      <point x="146.219" y="-15.042"/>
      <point x="78.0448" y="18.0504"/>
      <point x="41.9996" y="70.196" type="curve"/>
      <point x="120.463" y="137.384" type="line"/>
      <point x="146.583" y="109.305"/>
      <point x="183.221" y="88.2464"/>
      <point x="226.341" y="88.2464" type="curve" smooth="yes"/>
      <point x="264.448" y="88.2464"/>
      <point x="313.324" y="115.322"/>
      <point x="314.043" y="156.437" type="curve" smooth="yes"/>
      <point x="314.202" y="232.65"/>
      <point x="128.131" y="220.616"/>
      <point x="128.834" y="355.994" type="curve" smooth="yes"/>
      <point x="129.522" y="458.28"/>
      <point x="228.492" y="513.434"/>
      <point x="322.755" y="513.434" type="curve" smooth="yes"/>
      <point x="365.875" y="513.434"/>
      <point x="421.479" y="501.4"/>
      <point x="450.458" y="477.333" type="curve"/>
    </contour>
  </outline>
</glyph>
<glyph name="t" format="1">
  <advance width="276"/>
  <unicode hex="0074"/>
  <outline>
    <contour>
      <point x="180.063" y="132" type="line" smooth="yes"/>
      <point x="170.425" y="86.6667"/>
      <point x="194.278" y="75"/>
      <point x="240.945" y="75" type="curve"/>
      <point x="189.236" y="-13" type="line"/>
      <point x="88.4698" y="-10.3333"/>
      <point x="47.9371" y="37.3334"/>
      <point x="68.0632" y="132" type="curve" smooth="yes"/>
      <point x="188.395" y="698" type="line"/>
      <point x="300.395" y="698" type="line"/>
      <point x="258.087" y="499" type="line"/>
      <point x="353.087" y="499" type="line"/>
      <point x="308.615" y="398" type="line"/>
      <point x="236.615" y="398" type="line"/>
    </contour>
  </outline>
</glyph>
<glyph name="u" format="1">
  <advance width="446"/>
  <unicode hex="0075"/>
  <outline>
    <contour>
      <point x="301.526" y="26" type="line"/>
      <point x="285.359" y="12.6667"/>
      <point x="238.179" y="-7"/>
      <point x="195.512" y="-7" type="curve" smooth="yes"/>
      <point x="118.409" y="-7"/>
      <point x="43.0858" y="28.6313"/>
      <point x="70.3714" y="157" type="curve" smooth="yes"/>
      <point x="143.491" y="501" type="line"/>
      <point x="254.491" y="501" type="line"/>
      <point x="181.796" y="159" type="line" smooth="yes"/>
      <point x="174.492" y="124.633"/>
      <point x="178.901" y="89.0348"/>
      <point x="235.98" y="94" type="curve" smooth="yes"/>
      <point x="281.988" y="98"/>
      <point x="323.353" y="128.685"/>
      <point x="333.197" y="175" type="curve" smooth="yes"/>
      <point x="402.491" y="501" type="line"/>
      <point x="512.491" y="501" type="line"/>
      <point x="406" y="0" type="line"/>
      <point x="296" y="0" type="line"/>
    </contour>
  </outline>
</glyph>
<glyph name="w" format="1">
  <advance width="726"/>
  <unicode hex="0077"/>
  <outline>
    <contour>
      <point x="514.066" y="499" type="line"/>
      <point x="533.236" y="194" type="line"/>
      <point x="687.066" y="499" type="line"/>
      <point x="807.066" y="499" type="line"/>
      <point x="539" y="0" type="line"/>
      <point x="434" y="0" type="line"/>
      <point x="418.753" y="267" type="line"/>
      <point x="290" y="0" type="line"/>
      <point x="182" y="0" type="line"/>
      <point x="127.066" y="499" type="line"/>
      <point x="247.066" y="499" type="line"/>
      <point x="274.236" y="194" type="line"/>
      <point x="419.066" y="499" type="line"/>
    </contour>
  </outline>
</glyph>
<glyph name="x" format="1">
  <advance width="511"/>
  <unicode hex="0078"/>
  <outline>
    <contour>
      <point x="332.67" y="356" type="line"/>
      <point x="452.066" y="499" type="line"/>
      <point x="588.066" y="499" type="line"/>
      <point x="376.927" y="249" type="line"/>
      <point x="475" y="0" type="line"/>
      <point x="344" y="0" type="line"/>
      <point x="285.758" y="140" type="line"/>
      <point x="169" y="0" type="line"/>
      <point x="31" y="0" type="line"/>
      <point x="239.714" y="248" type="line"/>
      <point x="137.066" y="499" type="line"/>
      <point x="277.066" y="499" type="line"/>
    </contour>
  </outline>
</glyph>
<glyph name="y" format="1">
  <advance width="482"/>
  <unicode hex="0079"/>
  <outline>
    <contour>
      <point x="545.037" y="433" type="line"/>
      <point x="504.67" y="425"/>
      <point x="490.031" y="395.333"/>
      <point x="482.945" y="362" type="curve" smooth="yes"/>
      <point x="393.459" y="-59" type="line" smooth="yes"/>
      <point x="374" y="-152"/>
      <point x="307" y="-213"/>
      <point x="209.725" y="-213" type="curve"/>
      <point x="199.643" y="-124" type="line"/>
      <point x="241" y="-124"/>
      <point x="278" y="-87"/>
      <point x="285.797" y="-48" type="curve" smooth="yes"/>
      <point x="301.952" y="28" type="line"/>
      <point x="285.501" y="13.3333"/>
      <point x="237.391" y="-6"/>
      <point x="194.725" y="-6" type="curve" smooth="yes"/>
      <point x="115.065" y="-6"/>
      <point x="42.2902" y="29.593"/>
      <point x="69.5839" y="158" type="curve" smooth="yes"/>
      <point x="142.491" y="501" type="line"/>
      <point x="253.491" y="501" type="line"/>
      <point x="181.222" y="161" type="line" smooth="yes"/>
      <point x="173.242" y="123.46"/>
      <point x="194.93" y="94"/>
      <point x="235.98" y="94" type="curve" smooth="yes"/>
      <point x="281.627" y="94"/>
      <point x="323.71" y="130.364"/>
      <point x="333.41" y="176" type="curve" smooth="yes"/>
      <point x="379.322" y="392" type="line" smooth="yes"/>
      <point x="391.074" y="447.289"/>
      <point x="437.389" y="510"/>
      <point x="527.404" y="510" type="curve"/>
    </contour>
  </outline>
</glyph>
<glyph name="z" format="1">
  <advance width="434"/>
  <unicode hex="007A"/>
  <outline>
    <contour>
      <point x="497.066" y="499" type="line"/>
      <point x="476.023" y="400" type="line"/>
      <point x="203.318" y="105" type="line"/>
      <point x="423.318" y="105" type="line"/>
      <point x="401" y="0" type="line"/>
      <point x="33" y="0" type="line"/>
      <point x="55.3184" y="105" type="line"/>
      <point x="326.385" y="397" type="line"/>
      <point x="126.385" y="397" type="line"/>
      <point x="148.066" y="499" type="line"/>
    </contour>
  </outline>
</glyph>
<glyph name="braceright" format="1">
  <advance width="297"/>
  <unicode hex="007D"/>
  <outline>
    <contour>
      <point x="252.509" y="821" type="line"/>
      <point x="256.114" y="821"/>
      <point x="355.835" y="789.604"/>
      <point x="321.698" y="629" type="curve" smooth="yes"/>
      <point x="297.679" y="516" type="line" smooth="yes"/>
      <point x="285.598" y="459.162"/>
      <point x="280.918" y="410.224"/>
      <point x="332.52" y="360" type="curve" smooth="yes"/>
      <point x="341.82" y="352" type="line"/>
      <point x="330.332" y="345" type="line" smooth="yes"/>
      <point x="257.018" y="296.261"/>
      <point x="240.109" y="245.154"/>
      <point x="228.173" y="189" type="curve" smooth="yes"/>
      <point x="204.154" y="76" type="line" smooth="yes"/>
      <point x="170.109" y="-84.1688"/>
      <point x="58.1888" y="-117"/>
      <point x="53.1309" y="-117" type="curve"/>
      <point x="19.7731" y="-34" type="line"/>
      <point x="49.2553" y="-20.675"/>
      <point x="78.2601" y="1.2235"/>
      <point x="94.1543" y="76" type="curve" smooth="yes"/>
      <point x="118.173" y="189" type="line" smooth="yes"/>
      <point x="130.356" y="246.318"/>
      <point x="145.538" y="301.55"/>
      <point x="218.82" y="352" type="curve"/>
      <point x="167.658" y="404.219"/>
      <point x="175.656" y="459.434"/>
      <point x="187.679" y="516" type="curve" smooth="yes"/>
      <point x="211.698" y="629" type="line" smooth="yes"/>
      <point x="227.607" y="703.844"/>
      <point x="207.85" y="725.701"/>
      <point x="184.079" y="739" type="curve"/>
    </contour>
  </outline>
</glyph>
<glyph name="sterling" format="1">
  <advance width="432"/>
  <unicode hex="00A3"/>
  <outline>
    <contour>
      <point x="156.256" y="100" type="line" smooth="yes"/>
      <point x="223" y="100"/>
      <point x="268" y="159"/>
      <point x="270" y="228" type="curve" smooth="yes"/>
      <point x="272" y="260"/>
      <point x="263" y="293"/>
      <point x="251" y="323" type="curve" smooth="yes"/>
      <point x="244.269" y="340" type="line"/>
      <point x="108.269" y="340" type="line"/>
      <point x="130.163" y="443" type="line"/>
      <point x="199.163" y="443" type="line"/>
      <point x="191.414" y="463" type="line" smooth="yes"/>
      <point x="178" y="496"/>
      <point x="173" y="533"/>
      <point x="181.945" y="569" type="curve" smooth="yes"/>
      <point x="206" y="661"/>
      <point x="298.13" y="708"/>
      <point x="388.49" y="708" type="curve" smooth="yes"/>
      <point x="423.157" y="708"/>
      <point x="476.323" y="694.667"/>
      <point x="504.838" y="672" type="curve"/>
      <point x="451.708" y="582" type="line"/>
      <point x="428.925" y="594"/>
      <point x="399.838" y="603"/>
      <point x="361.172" y="603" type="curve" smooth="yes"/>
      <point x="339.838" y="603"/>
      <point x="307.784" y="594.043"/>
      <point x="298" y="566" type="curve" smooth="yes"/>
      <point x="287.256" y="535.204"/>
      <point x="298" y="513"/>
      <point x="317.177" y="476" type="curve" smooth="yes"/>
      <point x="334" y="443" type="line"/>
      <point x="490.162" y="443" type="line"/>
      <point x="468.269" y="340" type="line"/>
      <point x="376" y="340" type="line"/>
      <point x="386.105" y="311" type="line" smooth="yes"/>
      <point x="394" y="286"/>
      <point x="396" y="259"/>
      <point x="392" y="231" type="curve" smooth="yes"/>
      <point x="383" y="177"/>
      <point x="355" y="134"/>
      <point x="313.256" y="100" type="curve"/>
      <point x="417.256" y="100" type="line"/>
      <point x="396" y="0" type="line"/>
      <point x="36" y="0" type="line"/>
      <point x="57.2557" y="100" type="line"/>
    </contour>
  </outline>
</glyph>
<glyph name="currency" format="1">
  <advance width="497"/>
  <unicode hex="00A4"/>
  <outline>
    <contour>
      <point x="451.182" y="349" type="line"/>
      <point x="457.598" y="329"/>
      <point x="459.255" y="307"/>
      <point x="454.154" y="283" type="curve" smooth="yes"/>
      <point x="448.769" y="257.667"/>
      <point x="438.043" y="237"/>
      <point x="423.125" y="217" type="curve"/>
      <point x="491.845" y="131" type="line"/>
      <point x="414.454" y="68" type="line"/>
      <point x="345.521" y="153" type="line"/>
      <point x="324.871" y="143.667"/>
      <point x="299.787" y="137"/>
      <point x="277.12" y="137" type="curve" smooth="yes"/>
      <point x="253.12" y="137"/>
      <point x="232.75" y="144.667"/>
      <point x="214.734" y="154" type="curve"/>
      <point x="110.454" y="68" type="line"/>
      <point x="60.8449" y="131" type="line"/>
      <point x="165.125" y="217" type="line"/>
      <point x="160.043" y="237"/>
      <point x="157.769" y="257.667"/>
      <point x="163.154" y="283" type="curve" smooth="yes"/>
      <point x="167.972" y="305.667"/>
      <point x="179.669" y="329.333"/>
      <point x="192.97" y="348" type="curve"/>
      <point x="125.462" y="435" type="line"/>
      <point x="201.853" y="498" type="line"/>
      <point x="269.361" y="411" type="line"/>
      <point x="292.436" y="422.333"/>
      <point x="315.641" y="428"/>
      <point x="338.974" y="428" type="curve" smooth="yes"/>
      <point x="362.974" y="428"/>
      <point x="383.628" y="421.667"/>
      <point x="401.361" y="411" type="curve"/>
      <point x="505.853" y="498" type="line"/>
      <point x="556.462" y="435" type="line"/>
    </contour>
    <contour>
      <point x="297.101" y="231" type="curve" smooth="yes"/>
      <point x="326.316" y="231"/>
      <point x="354.124" y="254.636"/>
      <point x="360.154" y="283" type="curve" smooth="yes"/>
      <point x="366.517" y="312.941"/>
      <point x="348.281" y="334"/>
      <point x="318.994" y="334" type="curve" smooth="yes"/>
      <point x="291.317" y="334"/>
      <point x="263.515" y="312.928"/>
      <point x="257.154" y="283" type="curve" smooth="yes"/>
      <point x="251.122" y="254.623"/>
      <point x="269.351" y="231"/>
    </contour>
  </outline>
</glyph>
<glyph name="yen" format="1">
  <advance width="516"/>
  <unicode hex="00A5"/>
  <outline>
    <contour>
      <point x="139.086" y="198" type="line"/>
      <point x="160.98" y="301" type="line"/>
      <point x="265.98" y="301" type="line"/>
      <point x="268.955" y="315" type="line"/>
      <point x="169.364" y="698" type="line"/>
      <point x="286.364" y="698" type="line"/>
      <point x="349.037" y="433" type="line"/>
      <point x="525.364" y="698" type="line"/>
      <point x="641.364" y="698" type="line"/>
      <point x="379.955" y="315" type="line"/>
      <point x="376.98" y="301" type="line"/>
      <point x="480.98" y="301" type="line"/>
      <point x="459.086" y="198" type="line"/>
      <point x="355.086" y="198" type="line"/>
      <point x="344.883" y="150" type="line"/>
      <point x="448.883" y="150" type="line"/>
      <point x="426.565" y="45" type="line"/>
      <point x="322.565" y="45" type="line"/>
      <point x="313" y="0" type="line"/>
      <point x="202" y="0" type="line"/>
      <point x="211.565" y="45" type="line"/>
      <point x="106.565" y="45" type="line"/>
      <point x="128.883" y="150" type="line"/>
      <point x="233.883" y="150" type="line"/>
      <point x="244.086" y="198" type="line"/>
    </contour>
  </outline>
</glyph>
<glyph name="registered" format="1">
  <advance width="783"/>
  <unicode hex="00AE"/>
  <outline>
    <contour>
      <point x="789.323" y="185" type="line" smooth="yes"/>
      <point x="750.1" y="0.46965"/>
      <point x="581.118" y="-89.9953"/>
      <point x="370.02" y="-94" type="curve"/>
      <point x="161.899" y="-90.0197"/>
      <point x="32.0451" y="0.212029"/>
      <point x="71.3229" y="185" type="curve" smooth="yes"/>
      <point x="101.293" y="326" type="line" smooth="yes"/>
      <point x="140.332" y="509.661"/>
      <point x="309.217" y="603"/>
      <point x="518.172" y="603" type="curve" smooth="yes"/>
      <point x="728.436" y="603"/>
      <point x="858.39" y="509.937"/>
      <point x="819.293" y="326" type="curve" smooth="yes"/>
    </contour>
    <contour>
      <point x="709.216" y="288" type="line" smooth="yes"/>
      <point x="747.181" y="466.608"/>
      <point x="679.596" y="501.01"/>
      <point x="496.916" y="503" type="curve"/>
      <point x="313.197" y="498.833"/>
      <point x="234.148" y="468.417"/>
      <point x="195.216" y="288" type="curve" smooth="yes"/>
      <point x="181.188" y="222" type="line" smooth="yes"/>
      <point x="143.211" y="43.3324"/>
      <point x="209.701" y="9.00233"/>
      <point x="391.488" y="7" type="curve"/>
      <point x="576.624" y="11.1667"/>
      <point x="655.589" y="41.5833"/>
      <point x="695.188" y="222" type="curve" smooth="yes"/>
    </contour>
    <contour>
      <point x="521.163" y="443" type="line" smooth="yes"/>
      <point x="626.112" y="443"/>
      <point x="654.558" y="397.815"/>
      <point x="630.153" y="283" type="curve" smooth="yes"/>
      <point x="615.983" y="216.333"/>
      <point x="590.368" y="172.667"/>
      <point x="550.883" y="150" type="curve"/>
      <point x="584.966" y="61" type="line"/>
      <point x="458.966" y="61" type="line"/>
      <point x="442.207" y="128" type="line"/>
      <point x="368.207" y="128" type="line"/>
      <point x="353.966" y="61" type="line"/>
      <point x="243.966" y="61" type="line"/>
      <point x="325.162" y="443" type="line"/>
    </contour>
    <contour>
      <point x="468.526" y="233" type="line" smooth="yes"/>
      <point x="491.192" y="233"/>
      <point x="511.518" y="237.667"/>
      <point x="521.153" y="283" type="curve" smooth="yes"/>
      <point x="528.051" y="315.448"/>
      <point x="525.11" y="333"/>
      <point x="488.781" y="333" type="curve" smooth="yes"/>
      <point x="411.781" y="333" type="line"/>
      <point x="390.526" y="233" type="line"/>
    </contour>
  </outline>
</glyph>
<glyph name="overscore" format="1">
  <advance width="266"/>
  <unicode hex="00AF"/>
  <outline>
    <contour>
      <point x="543.971" y="708" type="line"/>
      <point x="505.712" y="618" type="line"/>
      <point x="284.712" y="618" type="line"/>
      <point x="322.971" y="708" type="line"/>
    </contour>
  </outline>
</glyph>
<glyph name="degree" format="1">
  <advance width="350"/>
  <unicode hex="00B0"/>
  <outline>
    <contour>
      <point x="439.882" y="564" type="curve" smooth="yes"/>
      <point x="422.89" y="484.061"/>
      <point x="344.542" y="419"/>
      <point x="263.061" y="419" type="curve" smooth="yes"/>
      <point x="182.306" y="419"/>
      <point x="130.852" y="483.879"/>
      <point x="147.882" y="564" type="curve" smooth="yes"/>
      <point x="165.195" y="645.453"/>
      <point x="244.318" y="710"/>
      <point x="324.915" y="710" type="curve" smooth="yes"/>
      <point x="406.553" y="710"/>
      <point x="457.234" y="645.635"/>
    </contour>
    <contour>
      <point x="305.147" y="617" type="curve" smooth="yes"/>
      <point x="276.816" y="617"/>
      <point x="248.233" y="593.879"/>
      <point x="241.882" y="564" type="curve" smooth="yes"/>
      <point x="235.844" y="535.592"/>
      <point x="254.418" y="512"/>
      <point x="282.829" y="512" type="curve" smooth="yes"/>
      <point x="310.456" y="512"/>
      <point x="340.86" y="535.667"/>
      <point x="346.882" y="564" type="curve" smooth="yes"/>
      <point x="353.249" y="593.954"/>
      <point x="332.853" y="617"/>
    </contour>
  </outline>
</glyph>
<glyph name="plusminus" format="1">
  <advance width="390"/>
  <unicode hex="00B1"/>
  <outline>
    <contour>
      <point x="109.182" y="349" type="line"/>
      <point x="131.501" y="454" type="line"/>
      <point x="235.501" y="454" type="line"/>
      <point x="258.882" y="564" type="line"/>
      <point x="369.882" y="564" type="line"/>
      <point x="346.501" y="454" type="line"/>
      <point x="451.501" y="454" type="line"/>
      <point x="429.182" y="349" type="line"/>
      <point x="324.182" y="349" type="line"/>
      <point x="302.289" y="246" type="line"/>
      <point x="406.289" y="246" type="line"/>
      <point x="385.033" y="146" type="line"/>
      <point x="65.0333" y="146" type="line"/>
      <point x="86.2889" y="246" type="line"/>
      <point x="191.289" y="246" type="line"/>
      <point x="213.182" y="349" type="line"/>
    </contour>
  </outline>
</glyph>
<glyph name="questiondown" format="1">
  <advance width="428"/>
  <unicode hex="00BF"/>
  <outline>
    <contour>
      <point x="431.222" y="161" type="line"/>
      <point x="409.432" y="58.4898"/>
      <point x="326" y="-18"/>
      <point x="209.812" y="-15" type="curve" smooth="yes"/>
      <point x="120" y="-12"/>
      <point x="40.5599" y="54.3852"/>
      <point x="65.1346" y="170" type="curve" smooth="yes"/>
      <point x="79.3051" y="236.667"/>
      <point x="123" y="279"/>
      <point x="176.719" y="328" type="curve" smooth="yes"/>
      <point x="242" y="387"/>
      <point x="265" y="410"/>
      <point x="279.665" y="483" type="curve" smooth="yes"/>
      <point x="298.795" y="573" type="line"/>
      <point x="407.795" y="573" type="line"/>
      <point x="388.027" y="480" type="line" smooth="yes"/>
      <point x="369.915" y="394.788"/>
      <point x="318.037" y="337.858"/>
      <point x="270.641" y="290" type="curve" smooth="yes"/>
      <point x="227.126" y="245.835"/>
      <point x="185.015" y="211.781"/>
      <point x="175.497" y="167" type="curve" smooth="yes"/>
      <point x="164.836" y="116.844"/>
      <point x="196" y="90"/>
      <point x="230.918" y="89" type="curve" smooth="yes"/>
      <point x="273" y="88"/>
      <point x="308.667" y="116.218"/>
      <point x="320.222" y="161" type="curve"/>
    </contour>
    <contour>
      <point x="381.49" y="708" type="curve" smooth="yes"/>
      <point x="414.823" y="708"/>
      <point x="435.034" y="682.333"/>
      <point x="427.949" y="649" type="curve" smooth="yes"/>
      <point x="420.864" y="615.667"/>
      <point x="389.317" y="588"/>
      <point x="355.983" y="588" type="curve" smooth="yes"/>
      <point x="322.65" y="588"/>
      <point x="302.864" y="615.667"/>
      <point x="309.949" y="649" type="curve" smooth="yes"/>
      <point x="317.034" y="682.333"/>
      <point x="348.157" y="708"/>
    </contour>
  </outline>
</glyph>
<glyph name="AE" format="1">
  <advance width="756"/>
  <unicode hex="00C6"/>
  <outline>
    <contour>
      <point x="387" y="0" type="line"/>
      <point x="428.023" y="193" type="line"/>
      <point x="263.023" y="193" type="line"/>
      <point x="150" y="0" type="line"/>
      <point x="21" y="0" type="line"/>
      <point x="440.364" y="698" type="line"/>
      <point x="869.364" y="698" type="line"/>
      <point x="845.983" y="588" type="line"/>
      <point x="619.983" y="588" type="line"/>
      <point x="582.786" y="413" type="line"/>
      <point x="734.786" y="413" type="line"/>
      <point x="678.042" y="306" type="line"/>
      <point x="560.042" y="306" type="line"/>
      <point x="516.256" y="100" type="line"/>
      <point x="740.256" y="100" type="line"/>
      <point x="719" y="0" type="line"/>
    </contour>
    <contour>
      <point x="324.767" y="300" type="line"/>
      <point x="449.767" y="300" type="line"/>
      <point x="510.983" y="588" type="line"/>
      <point x="490.983" y="588" type="line"/>
    </contour>
  </outline>
</glyph>
<glyph name="Eth" format="1">
  <advance width="497"/>
  <unicode hex="00D0"/>
  <outline>
    <component base="D"/>
    <contour>
      <point x="186.467" y="308" type="line"/>
      <point x="208.786" y="413" type="line"/>
      <point x="375.786" y="413" type="line"/>
      <point x="322.467" y="308" type="line"/>
    </contour>
  </outline>
</glyph>
<glyph name="multiply" format="1">
  <advance width="376"/>
  <unicode hex="00D7"/>
  <outline>
    <contour>
      <point x="272.873" y="404" type="line"/>
      <point x="380.979" y="508" type="line"/>
      <point x="440.65" y="450" type="line"/>
      <point x="317.569" y="332" type="line"/>
      <point x="390.337" y="218" type="line"/>
      <point x="307.371" y="157" type="line"/>
      <point x="242.265" y="260" type="line"/>
      <point x="134.159" y="156" type="line"/>
      <point x="79.3373" y="218" type="line"/>
      <point x="198.569" y="332" type="line"/>
      <point x="125.013" y="447" type="line"/>
      <point x="208.766" y="507" type="line"/>
    </contour>
  </outline>
</glyph>
<glyph name="Oslash" format="1">
  <advance width="493"/>
  <unicode hex="00D8"/>
  <outline>
    <component base="O"/>
    <contour>
      <point x="62.174" y="-18" type="line"/>
      <point x="477.041" y="720" type="line"/>
      <point x="577.041" y="720" type="line"/>
      <point x="158.174" y="-18" type="line"/>
    </contour>
  </outline>
</glyph>
<glyph name="divide" format="1">
  <advance width="380"/>
  <unicode hex="00F7"/>
  <outline>
    <contour>
      <point x="101.269" y="340" type="line"/>
      <point x="119.549" y="426" type="line"/>
      <point x="439.549" y="426" type="line"/>
      <point x="421.269" y="340" type="line"/>
    </contour>
    <contour>
      <point x="311.37" y="571" type="curve" smooth="yes"/>
      <point x="343.37" y="571"/>
      <point x="365.347" y="542.667"/>
      <point x="358.829" y="512" type="curve" smooth="yes"/>
      <point x="351.744" y="478.667"/>
      <point x="318.076" y="452"/>
      <point x="286.076" y="452" type="curve" smooth="yes"/>
      <point x="252.742" y="452"/>
      <point x="231.744" y="478.667"/>
      <point x="238.829" y="512" type="curve" smooth="yes"/>
      <point x="245.347" y="542.667"/>
      <point x="278.036" y="571"/>
    </contour>
    <contour>
      <point x="256.53" y="313" type="curve" smooth="yes"/>
      <point x="288.53" y="313"/>
      <point x="311.287" y="288.333"/>
      <point x="304.202" y="255" type="curve" smooth="yes"/>
      <point x="297.117" y="221.667"/>
      <point x="263.449" y="195"/>
      <point x="231.449" y="195" type="curve" smooth="yes"/>
      <point x="198.115" y="195"/>
      <point x="177.117" y="221.667"/>
      <point x="184.202" y="255" type="curve" smooth="yes"/>
      <point x="191.287" y="288.333"/>
      <point x="223.197" y="313"/>
    </contour>
  </outline>
</glyph>
<glyph name="thorn" format="1">
  <advance width="446"/>
  <unicode hex="00FE"/>
  <outline>
    <contour>
      <point x="255.365" y="491" type="line"/>
      <point x="280.299" y="501.667"/>
      <point x="311.645" y="508"/>
      <point x="344" y="508" type="curve" smooth="yes"/>
      <point x="441" y="508"/>
      <point x="492" y="453"/>
      <point x="492" y="361" type="curve" smooth="yes"/>
      <point x="492" y="235"/>
      <point x="398" y="116"/>
      <point x="261" y="116" type="curve" smooth="yes"/>
      <point x="225.323" y="116"/>
      <point x="197.428" y="124.333"/>
      <point x="180.545" y="139" type="curve"/>
      <point x="151" y="0" type="line"/>
      <point x="41" y="0" type="line"/>
      <point x="189.79" y="700" type="line"/>
      <point x="299.79" y="700" type="line"/>
    </contour>
    <contour>
      <point x="319.873" y="404" type="curve" smooth="yes"/>
      <point x="272" y="404"/>
      <point x="235" y="371"/>
      <point x="221" y="328" type="curve" smooth="yes"/>
      <point x="205" y="280"/>
      <point x="216" y="220"/>
      <point x="278" y="220" type="curve" smooth="yes"/>
      <point x="342" y="220"/>
      <point x="380" y="285"/>
      <point x="380" y="338" type="curve" smooth="yes"/>
      <point x="380" y="374"/>
      <point x="363" y="404"/>
    </contour>
  </outline>
</glyph>
<glyph name="dcroat" format="1">
  <advance width="459"/>
  <unicode hex="0111"/>
  <outline>
    <component base="d" yxScale="-9.99868e-05"/>
    <contour>
      <point x="575.119" y="551" type="line"/>
      <point x="594.036" y="640" type="line"/>
      <point x="360.036" y="640" type="line"/>
      <point x="341.119" y="551" type="line"/>
    </contour>
  </outline>
</glyph>
<glyph name="IJ" format="1">
  <advance width="537"/>
  <unicode hex="0132"/>
  <outline>
    <contour>
      <point x="655.365" y="698" type="line"/>
      <point x="546.323" y="185" type="line" smooth="yes"/>
      <point x="519.65" y="59.5123"/>
      <point x="422" y="-11"/>
      <point x="295.662" y="-11" type="curve" smooth="yes"/>
      <point x="181.803" y="-11"/>
      <point x="99.2331" y="57.5522"/>
      <point x="126.323" y="185" type="curve" smooth="yes"/>
      <point x="134.4" y="223" type="line"/>
      <point x="244.4" y="223" type="line"/>
      <point x="240.362" y="204" type="line" smooth="yes"/>
      <point x="226.746" y="139.943"/>
      <point x="252.169" y="101"/>
      <point x="318.468" y="101" type="curve" smooth="yes"/>
      <point x="381.991" y="101"/>
      <point x="427.874" y="145.249"/>
      <point x="440.787" y="206" type="curve" smooth="yes"/>
      <point x="522.834" y="592" type="line"/>
      <point x="464.046" y="593" type="line"/>
      <point x="486.365" y="698" type="line"/>
    </contour>
    <contour>
      <point x="345.364" y="698" type="line"/>
      <point x="265.018" y="320" type="line"/>
      <point x="155.018" y="320" type="line"/>
      <point x="212.621" y="591" type="line"/>
      <point x="149.046" y="593" type="line"/>
      <point x="171.364" y="698" type="line"/>
    </contour>
  </outline>
</glyph>
<glyph name="Lslash" format="1">
  <advance width="518"/>
  <unicode hex="0141"/>
  <outline>
    <component base="L" xOffset="90"/>
    <contour>
      <point x="117" y="278" type="line"/>
      <point x="98" y="360" type="line"/>
      <point x="416" y="490" type="line"/>
      <point x="436" y="410" type="line"/>
    </contour>
  </outline>
</glyph>
<glyph name="lslash" format="1">
  <advance width="377"/>
  <unicode hex="0142"/>
  <outline>
    <component base="l" xOffset="83"/>
    <contour>
      <point x="419" y="490" type="line"/>
      <point x="438" y="410" type="line"/>
      <point x="119" y="278" type="line"/>
      <point x="99" y="359" type="line"/>
    </contour>
  </outline>
</glyph>
<glyph name="Eng" format="1">
  <advance width="577"/>
  <unicode hex="014A"/>
  <outline>
    <contour>
      <point x="521.459" y="-59" type="line" smooth="yes"/>
      <point x="509.273" y="-116.333"/>
      <point x="482.925" y="-149.333"/>
      <point x="450.59" y="-176" type="curve"/>
      <point x="415.872" y="-201.333"/>
      <point x="365.725" y="-213"/>
      <point x="337.725" y="-213" type="curve"/>
      <point x="326.643" y="-124" type="line"/>
      <point x="350.443" y="-118.667"/>
      <point x="366.081" y="-115.667"/>
      <point x="382.532" y="-101" type="curve"/>
      <point x="396.799" y="-90.3333"/>
      <point x="408.413" y="-73.3333"/>
      <point x="413.797" y="-48" type="curve" smooth="yes"/>
      <point x="424" y="0" type="line"/>
      <point x="251.327" y="472" type="line"/>
      <point x="151" y="0" type="line"/>
      <point x="41" y="0" type="line"/>
      <point x="189.364" y="698" type="line"/>
      <point x="300.364" y="698" type="line"/>
      <point x="472.888" y="230" type="line"/>
      <point x="572.364" y="698" type="line"/>
      <point x="682.364" y="698" type="line"/>
    </contour>
  </outline>
</glyph>
<glyph name="dotlessj" format="1">
  <advance width="250"/>
  <unicode hex="0237"/>
  <outline>
    <contour>
      <point x="196.037" y="-61" type="line" smooth="yes"/>
      <point x="177.125" y="-150"/>
      <point x="104.312" y="-215"/>
      <point x="13.3125" y="-215" type="curve"/>
      <point x="2.4375" y="-125" type="line"/>
      <point x="47.5625" y="-115"/>
      <point x="77.9625" y="-99"/>
      <point x="88.375" y="-50" type="curve" smooth="yes"/>
      <point x="184" y="400" type="line"/>
      <point x="115.125" y="410" type="line"/>
      <point x="134.038" y="499" type="line"/>
      <point x="315.038" y="499" type="line"/>
    </contour>
  </outline>
</glyph>
<glyph name="circumflex" format="1">
  <advance width="266"/>
  <unicode hex="02C6"/>
  <outline>
    <contour>
      <point x="399.674" y="643" type="line"/>
      <point x="335.833" y="592" type="line"/>
      <point x="278.051" y="673" type="line"/>
      <point x="180.621" y="591" type="line"/>
      <point x="139.461" y="642" type="line"/>
      <point x="298.669" y="770" type="line"/>
    </contour>
  </outline>
</glyph>
<glyph name="dotaccent" format="1">
  <advance width="266"/>
  <unicode hex="02D9"/>
  <outline>
    <contour>
      <point x="297.519" y="774" type="curve" smooth="yes"/>
      <point x="330.852" y="774"/>
      <point x="351.276" y="749.333"/>
      <point x="344.19" y="716" type="curve" smooth="yes"/>
      <point x="337.105" y="682.667"/>
      <point x="305.77" y="656"/>
      <point x="272.437" y="656" type="curve" smooth="yes"/>
      <point x="239.104" y="656"/>
      <point x="218.105" y="682.667"/>
      <point x="225.19" y="716" type="curve" smooth="yes"/>
      <point x="232.276" y="749.333"/>
      <point x="264.185" y="774"/>
    </contour>
  </outline>
</glyph>
<glyph name="ogonek" format="1">
  <advance width="266"/>
  <unicode hex="02DB"/>
  <outline>
    <contour>
      <point x="186.401" y="16" type="line"/>
      <point x="183.425" y="2" type="line"/>
      <point x="74.8555" y="-123" type="line"/>
      <point x="60.5681" y="-141.601"/>
      <point x="64.9972" y="-164.438"/>
      <point x="92.2663" y="-154" type="curve" smooth="yes"/>
      <point x="122.446" y="-143.778"/>
      <point x="203.242" y="-117.556"/>
      <point x="202.918" y="-118" type="curve"/>
      <point x="212.614" y="-190" type="line"/>
      <point x="214.106" y="-189.778"/>
      <point x="121.363" y="-218.889"/>
      <point x="100.387" y="-224" type="curve" smooth="yes"/>
      <point x="3.78334" y="-250.741"/>
      <point x="-49.6445" y="-174.721"/>
      <point x="19.5076" y="-87" type="curve"/>
      <point x="93.6377" y="3" type="line"/>
      <point x="94.4879" y="7" type="line"/>
    </contour>
  </outline>
</glyph>
<glyph name="Eta" format="1">
  <advance width="514"/>
  <unicode hex="0397"/>
  <outline>
    <contour>
      <point x="449.786" y="413" type="line"/>
      <point x="510.364" y="698" type="line"/>
      <point x="619.364" y="698" type="line"/>
      <point x="471" y="0" type="line"/>
      <point x="362" y="0" type="line"/>
      <point x="427.467" y="308" type="line"/>
      <point x="216.467" y="308" type="line"/>
      <point x="151" y="0" type="line"/>
      <point x="41" y="0" type="line"/>
      <point x="189.364" y="698" type="line"/>
      <point x="299.364" y="698" type="line"/>
      <point x="238.786" y="413" type="line"/>
    </contour>
  </outline>
</glyph>
<glyph name="Lambda" format="1">
  <advance width="548"/>
  <unicode hex="039B"/>
  <outline>
    <contour>
      <point x="369.414" y="463" type="line"/>
      <point x="146" y="0" type="line"/>
      <point x="22" y="0" type="line"/>
      <point x="370.364" y="698" type="line"/>
      <point x="471.364" y="698" type="line"/>
      <point x="527" y="0" type="line"/>
      <point x="400" y="0" type="line"/>
    </contour>
  </outline>
</glyph>
<glyph name="Phi" format="1">
  <advance width="597"/>
  <unicode hex="03A6"/>
  <outline>
    <contour>
      <point x="340.785" y="620" type="line"/>
      <point x="311.703" y="609.66"/>
      <point x="272.253" y="593.975"/>
      <point x="255.679" y="516" type="curve" smooth="yes"/>
      <point x="188.086" y="198" type="line" smooth="yes"/>
      <point x="178.612" y="153.428"/>
      <point x="178.255" y="100"/>
      <point x="245.256" y="100" type="curve" smooth="yes"/>
      <point x="262.256" y="100" type="line"/>
      <point x="364.731" y="584.702" type="line" smooth="yes"/>
      <point x="371.497" y="616.702"/>
      <point x="404.131" y="710"/>
      <point x="526.915" y="710" type="curve" smooth="yes"/>
      <point x="638.607" y="710"/>
      <point x="695.361" y="632.117"/>
      <point x="669.404" y="510" type="curve" smooth="yes"/>
      <point x="609.038" y="226" type="line" smooth="yes"/>
      <point x="581.126" y="94.684"/>
      <point x="518.081" y="13"/>
      <point x="376.763" y="13" type="curve" smooth="yes"/>
      <point x="353.763" y="13" type="line"/>
      <point x="343.561" y="-35" type="line"/>
      <point x="236.324" y="-22" type="line"/>
      <point x="243.763" y="13" type="line"/>
      <point x="226.763" y="13" type="line"/>
      <point x="70.7246" y="11.25"/>
      <point x="61.1385" y="109.25"/>
      <point x="84.0378" y="226" type="curve"/>
      <point x="145.679" y="516" type="line" smooth="yes"/>
      <point x="167.077" y="616.667"/>
      <point x="219.134" y="679.667"/>
      <point x="301.852" y="705" type="curve"/>
    </contour>
    <contour>
      <point x="395.256" y="100" type="line" smooth="yes"/>
      <point x="459.056" y="100"/>
      <point x="484.052" y="155.989"/>
      <point x="493.086" y="198" type="curve" smooth="yes"/>
      <point x="551.659" y="474.819" type="line" smooth="yes"/>
      <point x="563.2" y="529.36"/>
      <point x="584.564" y="599"/>
      <point x="522" y="599" type="curve" smooth="yes"/>
      <point x="483.674" y="599"/>
      <point x="472.823" y="573.545"/>
      <point x="465" y="536.707" type="curve" smooth="yes"/>
      <point x="372.256" y="100" type="line"/>
    </contour>
  </outline>
</glyph>
<glyph name="Psi" format="1">
  <advance width="594"/>
  <unicode hex="03A8"/>
  <outline>
    <contour>
      <point x="233" y="432" type="line" smooth="yes"/>
      <point x="214" y="342"/>
      <point x="223" y="307"/>
      <point x="286" y="307" type="curve" smooth="yes"/>
      <point x="304" y="307" type="line"/>
      <point x="388" y="700" type="line"/>
      <point x="498" y="700" type="line"/>
      <point x="414" y="307" type="line"/>
      <point x="437" y="307" type="line" smooth="yes"/>
      <point x="498" y="307"/>
      <point x="525" y="341"/>
      <point x="545" y="434" type="curve" smooth="yes"/>
      <point x="572" y="565" type="line" smooth="yes"/>
      <point x="588" y="637"/>
      <point x="544" y="666"/>
      <point x="547" y="667" type="curve"/>
      <point x="656" y="710" type="line"/>
      <point x="673" y="701"/>
      <point x="698" y="651"/>
      <point x="677" y="550" type="curve" smooth="yes"/>
      <point x="647" y="407" type="line" smooth="yes"/>
      <point x="620" y="286"/>
      <point x="546" y="214"/>
      <point x="418" y="214" type="curve" smooth="yes"/>
      <point x="395" y="214" type="line"/>
      <point x="349" y="0" type="line"/>
      <point x="239" y="0" type="line"/>
      <point x="285" y="214" type="line"/>
      <point x="266" y="214" type="line" smooth="yes"/>
      <point x="141" y="214"/>
      <point x="93" y="286"/>
      <point x="119" y="407" type="curve" smooth="yes"/>
      <point x="181" y="700" type="line"/>
      <point x="291" y="700" type="line"/>
    </contour>
  </outline>
</glyph>
<glyph name="Omegagreek" format="1">
  <advance width="583"/>
  <unicode hex="03A9"/>
  <outline>
    <contour>
      <point x="583.025" y="226" type="line" smooth="yes"/>
      <point x="567.158" y="151.333"/>
      <point x="551.096" y="119.667"/>
      <point x="504.463" y="101" type="curve"/>
      <point x="553.463" y="101" type="line"/>
      <point x="548" y="0" type="line"/>
      <point x="320" y="0" type="line"/>
      <point x="341.463" y="101" type="line"/>
      <point x="413.517" y="101"/>
      <point x="448.931" y="112.614"/>
      <point x="466.65" y="196" type="curve" smooth="yes"/>
      <point x="524.45" y="468" type="line" smooth="yes"/>
      <point x="540.317" y="542.667"/>
      <point x="528.888" y="588"/>
      <point x="457.95" y="588" type="curve" smooth="yes"/>
      <point x="380.95" y="588" type="line" smooth="yes"/>
      <point x="311.617" y="588"/>
      <point x="275.433" y="557.333"/>
      <point x="256.45" y="468" type="curve" smooth="yes"/>
      <point x="198.438" y="195" type="line" smooth="yes"/>
      <point x="179.791" y="107.252"/>
      <point x="210.79" y="101"/>
      <point x="283.463" y="101" type="curve"/>
      <point x="262" y="0" type="line"/>
      <point x="34" y="0" type="line"/>
      <point x="73.4625" y="101" type="line"/>
      <point x="120.463" y="101" type="line"/>
      <point x="76.683" y="113.091"/>
      <point x="87.3537" y="185.194"/>
      <point x="96.025" y="226" type="curve" smooth="yes"/>
      <point x="154.675" y="502" type="line" smooth="yes"/>
      <point x="180.742" y="624.667"/>
      <point x="260.692" y="705"/>
      <point x="386.025" y="705" type="curve" smooth="yes"/>
      <point x="478.367" y="705" type="line" smooth="yes"/>
      <point x="602.367" y="705"/>
      <point x="667.742" y="624.667"/>
      <point x="641.675" y="502" type="curve" smooth="yes"/>
    </contour>
  </outline>
</glyph>
<glyph name="epsilon" format="1">
  <advance width="399"/>
  <unicode hex="03B5"/>
  <outline>
    <contour>
      <point x="392" y="401" type="line"/>
      <point x="366" y="409"/>
      <point x="338" y="416"/>
      <point x="300" y="412" type="curve" smooth="yes"/>
      <point x="274" y="409"/>
      <point x="240.818" y="394.333"/>
      <point x="233.733" y="361" type="curve" smooth="yes"/>
      <point x="223.113" y="311.036"/>
      <point x="277.259" y="301"/>
      <point x="313.98" y="301" type="curve" smooth="yes"/>
      <point x="366.98" y="301" type="line"/>
      <point x="315.574" y="205" type="line"/>
      <point x="254.574" y="205" type="line" smooth="yes"/>
      <point x="213" y="205"/>
      <point x="178.651" y="186.545"/>
      <point x="171.521" y="153" type="curve" smooth="yes"/>
      <point x="163.586" y="115.667"/>
      <point x="199" y="101"/>
      <point x="244.468" y="101" type="curve" smooth="yes"/>
      <point x="287" y="101"/>
      <point x="337.424" y="112.697"/>
      <point x="369.42" y="129" type="curve"/>
      <point x="379.889" y="23" type="line"/>
      <point x="321.738" y="0.333334"/>
      <point x="264.329" y="-11"/>
      <point x="201.662" y="-11" type="curve" smooth="yes"/>
      <point x="83.0596" y="-11"/>
      <point x="43.4882" y="82.6849"/>
      <point x="59.9911" y="160.325" type="curve" smooth="yes"/>
      <point x="71.3275" y="213.658"/>
      <point x="109.249" y="265.156"/>
      <point x="161.033" y="286.628" type="curve"/>
      <point x="134.437" y="312.748"/>
      <point x="122.738" y="349.254"/>
      <point x="132.322" y="392" type="curve" smooth="yes"/>
      <point x="144.614" y="452.084"/>
      <point x="204" y="507"/>
      <point x="303.404" y="510" type="curve" smooth="yes"/>
      <point x="339" y="511"/>
      <point x="372.816" y="505.667"/>
      <point x="409.215" y="495" type="curve"/>
    </contour>
  </outline>
</glyph>
<glyph name="theta" format="1">
  <advance width="444"/>
  <unicode hex="03B8"/>
  <outline>
    <contour>
      <point x="365.49" y="708" type="curve"/>
      <point x="491.873" y="706.667"/>
      <point x="541.052" y="630.667"/>
      <point x="514.129" y="504" type="curve" smooth="yes"/>
      <point x="447.173" y="189" type="line" smooth="yes"/>
      <point x="420.249" y="62.3333"/>
      <point x="345.058" y="-9"/>
      <point x="219.725" y="-9" type="curve" smooth="yes"/>
      <point x="95.7247" y="-9"/>
      <point x="47.8162" y="65"/>
      <point x="74.1732" y="189" type="curve" smooth="yes"/>
      <point x="95.0038" y="287" type="line" smooth="yes"/>
      <point x="111.441" y="364.333"/>
      <point x="148.773" y="406.667"/>
      <point x="175.974" y="428" type="curve"/>
      <point x="157.402" y="471.821"/>
      <point x="155.268" y="518.77"/>
      <point x="162.331" y="552" type="curve" smooth="yes"/>
      <point x="181.069" y="640.152"/>
      <point x="265.319" y="708"/>
    </contour>
    <contour>
      <point x="401.341" y="505" type="line" smooth="yes"/>
      <point x="414.661" y="567.667"/>
      <point x="397.08" y="601"/>
      <point x="347.746" y="601" type="curve" smooth="yes"/>
      <point x="301.937" y="601"/>
      <point x="275.803" y="573.037"/>
      <point x="268.781" y="540" type="curve" smooth="yes"/>
      <point x="265" y="522"/>
      <point x="261" y="485"/>
      <point x="286" y="451" type="curve" smooth="yes"/>
      <point x="301" y="429"/>
      <point x="330" y="407"/>
      <point x="377.535" y="393" type="curve"/>
    </contour>
    <contour>
      <point x="240" y="99" type="curve" smooth="yes"/>
      <point x="293.339" y="99"/>
      <point x="323.777" y="140.092"/>
      <point x="332.685" y="182" type="curve" smooth="yes"/>
      <point x="362.868" y="324" type="line"/>
      <point x="308.768" y="326.667"/>
      <point x="269.007" y="340.333"/>
      <point x="238.308" y="359" type="curve"/>
      <point x="226.14" y="345.667"/>
      <point x="217.648" y="327.667"/>
      <point x="210.279" y="293" type="curve" smooth="yes"/>
      <point x="186.685" y="182" type="line" smooth="yes"/>
      <point x="177.788" y="140.142"/>
      <point x="189.698" y="99"/>
    </contour>
  </outline>
</glyph>
<glyph name="kappa" format="1">
  <advance width="476"/>
  <unicode hex="03BA"/>
  <outline>
    <contour>
      <point x="392" y="160" type="line" smooth="yes"/>
      <point x="418" y="109"/>
      <point x="439" y="98"/>
      <point x="464" y="97" type="curve"/>
      <point x="410" y="-1" type="line"/>
      <point x="336" y="-1"/>
      <point x="312" y="54"/>
      <point x="283" y="113" type="curve" smooth="yes"/>
      <point x="227" y="222" type="line"/>
      <point x="192" y="195" type="line"/>
      <point x="151" y="0" type="line"/>
      <point x="40" y="0" type="line"/>
      <point x="149" y="512" type="line"/>
      <point x="257" y="500" type="line"/>
      <point x="222" y="334" type="line"/>
      <point x="411" y="501" type="line"/>
      <point x="548" y="501" type="line"/>
      <point x="322" y="300" type="line"/>
    </contour>
  </outline>
</glyph>
<glyph name="nu" format="1">
  <advance width="468"/>
  <unicode hex="03BD"/>
  <outline>
    <contour>
      <point x="127.066" y="499" type="line"/>
      <point x="241.066" y="499" type="line"/>
      <point x="263.639" y="165.756" type="line"/>
      <point x="430.066" y="499" type="line"/>
      <point x="549.066" y="499" type="line"/>
      <point x="286" y="0" type="line"/>
      <point x="180" y="0" type="line"/>
    </contour>
  </outline>
</glyph>
<glyph name="pi" format="1">
  <advance width="475"/>
  <unicode hex="03C0"/>
  <outline>
    <contour>
      <point x="437.318" y="105" type="line"/>
      <point x="435.734" y="85"/>
      <point x="444.162" y="71.3333"/>
      <point x="458.179" y="62" type="curve"/>
      <point x="376.387" y="-17" type="line"/>
      <point x="378.669" y="-15.6732"/>
      <point x="304.802" y="3.77124"/>
      <point x="323.855" y="84" type="curve"/>
      <point x="391.172" y="396" type="line"/>
      <point x="233.172" y="396" type="line"/>
      <point x="149" y="0" type="line"/>
      <point x="39" y="0" type="line"/>
      <point x="145.066" y="499" type="line"/>
      <point x="521.066" y="499" type="line"/>
    </contour>
  </outline>
</glyph>
<glyph name="rho" format="1">
  <advance width="438"/>
  <unicode hex="03C1"/>
  <outline>
    <contour>
      <point x="441.135" y="170" type="line" smooth="yes"/>
      <point x="415.344" y="48.6667"/>
      <point x="343.053" y="-17"/>
      <point x="232.387" y="-17" type="curve" smooth="yes"/>
      <point x="199.62" y="-17"/>
      <point x="168.342" y="-6.8866"/>
      <point x="147.488" y="7" type="curve"/>
      <point x="100" y="-215" type="line"/>
      <point x="-4" y="-190" type="line"/>
      <point x="102.105" y="311" type="line" smooth="yes"/>
      <point x="128.876" y="438.026"/>
      <point x="210.22" y="506"/>
      <point x="331.554" y="506" type="curve" smooth="yes"/>
      <point x="446.22" y="506"/>
      <point x="496.895" y="432.333"/>
      <point x="471.105" y="311" type="curve" smooth="yes"/>
    </contour>
    <contour>
      <point x="362.38" y="317" type="line" smooth="yes"/>
      <point x="372.583" y="365"/>
      <point x="352.172" y="396"/>
      <point x="304.172" y="396" type="curve" smooth="yes"/>
      <point x="257.506" y="396"/>
      <point x="224.15" y="367.667"/>
      <point x="213.38" y="317" type="curve" smooth="yes"/>
      <point x="174.483" y="134" type="line" smooth="yes"/>
      <point x="166.795" y="97.8317"/>
      <point x="214.862" y="82"/>
      <point x="247.43" y="82" type="curve" smooth="yes"/>
      <point x="290.096" y="82"/>
      <point x="318.31" y="109.667"/>
      <point x="327.946" y="155" type="curve" smooth="yes"/>
    </contour>
  </outline>
</glyph>
<glyph name="tau" format="1">
  <advance width="359"/>
  <unicode hex="03C4"/>
  <outline>
    <contour>
      <point x="259.246" y="147" type="line" smooth="yes"/>
      <point x="248.479" y="96.3448"/>
      <point x="259.846" y="72.1721"/>
      <point x="302.903" y="56" type="curve"/>
      <point x="239.749" y="-20" type="line"/>
      <point x="164" y="0"/>
      <point x="129.62" y="54.6667"/>
      <point x="146.057" y="132" type="curve" smooth="yes"/>
      <point x="202.172" y="396" type="line"/>
      <point x="109.172" y="396" type="line"/>
      <point x="131.066" y="499" type="line"/>
      <point x="434.066" y="499" type="line"/>
      <point x="412.172" y="396" type="line"/>
      <point x="312.172" y="396" type="line"/>
    </contour>
  </outline>
</glyph>
<glyph name="phi" format="1">
  <advance width="589"/>
  <unicode hex="03C6"/>
  <outline>
    <contour>
      <point x="97.5302" y="313" type="line" smooth="yes"/>
      <point x="119.353" y="415.667"/>
      <point x="173.319" y="476.667"/>
      <point x="254.703" y="502" type="curve"/>
      <point x="296.274" y="420" type="line"/>
      <point x="234.553" y="407.826"/>
      <point x="219.763" y="370.551"/>
      <point x="207.53" y="313" type="curve" smooth="yes"/>
      <point x="177.56" y="172" type="line" smooth="yes"/>
      <point x="166.378" y="119.393"/>
      <point x="207.057" y="100"/>
      <point x="241.256" y="100" type="curve" smooth="yes"/>
      <point x="258.256" y="100" type="line"/>
      <point x="319.472" y="388" type="line" smooth="yes"/>
      <point x="334.209" y="457.333"/>
      <point x="397.22" y="506"/>
      <point x="478.554" y="506" type="curve" smooth="yes"/>
      <point x="591.783" y="506"/>
      <point x="646.631" y="421.68"/>
      <point x="622.255" y="307" type="curve" smooth="yes"/>
      <point x="597.173" y="189" type="line" smooth="yes"/>
      <point x="571.383" y="67.6667"/>
      <point x="497.512" y="-7"/>
      <point x="369.512" y="-7" type="curve" smooth="yes"/>
      <point x="345.512" y="-7" type="line"/>
      <point x="301.088" y="-216" type="line"/>
      <point x="197.644" y="-189.533" type="line"/>
      <point x="235.512" y="-7" type="line"/>
      <point x="218.512" y="-7" type="line" smooth="yes"/>
      <point x="93.1787" y="-7"/>
      <point x="45.3829" y="67.6667"/>
      <point x="71.1731" y="189" type="curve" smooth="yes"/>
    </contour>
    <contour>
      <point x="392.256" y="100" type="line" smooth="yes"/>
      <point x="436.927" y="100"/>
      <point x="474.21" y="128.012"/>
      <point x="483.56" y="172" type="curve" smooth="yes"/>
      <point x="517.356" y="331" type="line" smooth="yes"/>
      <point x="525.25" y="368.139"/>
      <point x="523.056" y="420"/>
      <point x="473.274" y="420" type="curve" smooth="yes"/>
      <point x="449.274" y="420"/>
      <point x="432.873" y="404"/>
      <point x="427.772" y="380" type="curve" smooth="yes"/>
      <point x="368.256" y="100" type="line"/>
    </contour>
  </outline>
</glyph>
<glyph name="chi" format="1">
  <advance width="541"/>
  <unicode hex="03C7"/>
  <outline>
    <contour>
      <point x="428.034" y="-61" type="line"/>
      <point x="436.981" y="-113"/>
      <point x="465.909" y="-140"/>
      <point x="511.242" y="-140" type="curve"/>
      <point x="443.938" y="-212" type="line"/>
      <point x="390.605" y="-212"/>
      <point x="352.577" y="-182.333"/>
      <point x="333.131" y="-117" type="curve"/>
      <point x="275.555" y="92" type="line"/>
      <point x="61.6385" y="-204" type="line"/>
      <point x="-25.2216" y="-161" type="line"/>
      <point x="244" y="207" type="line"/>
      <point x="158.067" y="499" type="line"/>
      <point x="277.067" y="499" type="line"/>
      <point x="325.806" y="319" type="line"/>
      <point x="457.067" y="499" type="line"/>
      <point x="581.067" y="499" type="line"/>
      <point x="357.362" y="204" type="line"/>
    </contour>
  </outline>
</glyph>
<glyph name="psi" format="1">
  <advance width="596"/>
  <unicode hex="03C8"/>
  <outline>
    <contour>
      <point x="636.341" y="505" type="line"/>
      <point x="655.923" y="471.667"/>
      <point x="654.312" y="439"/>
      <point x="643.259" y="387" type="curve" smooth="yes"/>
      <point x="601.173" y="189" type="line" smooth="yes"/>
      <point x="575.383" y="67.6667"/>
      <point x="498.512" y="-7"/>
      <point x="370.512" y="-7" type="curve" smooth="yes"/>
      <point x="353.512" y="-7" type="line"/>
      <point x="309.088" y="-216" type="line"/>
      <point x="204.816" y="-190.797" type="line"/>
      <point x="244.512" y="-7" type="line"/>
      <point x="220.512" y="-7" type="line" smooth="yes"/>
      <point x="95.1788" y="-7"/>
      <point x="49.383" y="67.6667"/>
      <point x="75.1732" y="189" type="curve" smooth="yes"/>
      <point x="141.066" y="499" type="line"/>
      <point x="251.066" y="499" type="line"/>
      <point x="181.56" y="172" type="line" smooth="yes"/>
      <point x="172.029" y="127.162"/>
      <point x="199.115" y="100"/>
      <point x="243.256" y="100" type="curve" smooth="yes"/>
      <point x="267.256" y="100" type="line"/>
      <point x="352.066" y="499" type="line"/>
      <point x="461.066" y="499" type="line"/>
      <point x="376.256" y="100" type="line"/>
      <point x="393.256" y="100" type="line" smooth="yes"/>
      <point x="428.364" y="100"/>
      <point x="476.411" y="119.55"/>
      <point x="487.56" y="172" type="curve" smooth="yes"/>
      <point x="533.259" y="387" type="line" smooth="yes"/>
      <point x="543.179" y="433.667"/>
      <point x="538.621" y="453"/>
      <point x="526.389" y="477" type="curve"/>
    </contour>
  </outline>
</glyph>
<glyph name="quoteright" format="1">
  <advance width="173"/>
  <unicode hex="2019"/>
  <outline>
    <contour>
      <point x="169.906" y="550" type="line"/>
      <point x="184.541" y="568.667"/>
      <point x="192.983" y="588"/>
      <point x="201.234" y="608" type="curve"/>
      <point x="175.985" y="614.667"/>
      <point x="161.682" y="638.333"/>
      <point x="167.35" y="665" type="curve" smooth="yes"/>
      <point x="174.152" y="697"/>
      <point x="206.77" y="725"/>
      <point x="240.104" y="725" type="curve" smooth="yes"/>
      <point x="273.437" y="725"/>
      <point x="293.152" y="697"/>
      <point x="286.35" y="665" type="curve" smooth="yes"/>
      <point x="268.769" y="574.444"/>
      <point x="189.39" y="531.889"/>
      <point x="191.08" y="532" type="curve"/>
    </contour>
  </outline>
</glyph>
<glyph name="quotesinglbase" format="1">
  <advance width="188"/>
  <unicode hex="201A"/>
  <outline>
    <contour>
      <point x="46.4834" y="-73" type="line"/>
      <point x="61.1178" y="-54.3333"/>
      <point x="70.5106" y="-33.6667"/>
      <point x="75.8117" y="-15" type="curve"/>
      <point x="51.8954" y="-8.33333"/>
      <point x="38.1883" y="15"/>
      <point x="44.1399" y="43" type="curve" smooth="yes"/>
      <point x="51.2252" y="76.3333"/>
      <point x="82.3474" y="102"/>
      <point x="115.681" y="102" type="curve" smooth="yes"/>
      <point x="149.014" y="102"/>
      <point x="169.225" y="76.3333"/>
      <point x="162.14" y="43" type="curve" smooth="yes"/>
      <point x="144.44" y="-48.1111"/>
      <point x="65.5103" y="-88.5556"/>
      <point x="67.0825" y="-89" type="curve"/>
    </contour>
  </outline>
</glyph>
<glyph name="quotedblleft" format="1">
  <advance width="357"/>
  <unicode hex="201C"/>
  <outline>
    <contour>
      <point x="449.49" y="708" type="line"/>
      <point x="436.472" y="690.667"/>
      <point x="428.009" y="669.667"/>
      <point x="421.374" y="651" type="curve"/>
      <point x="445.007" y="643"/>
      <point x="459.714" y="619.667"/>
      <point x="454.046" y="593" type="curve" smooth="yes"/>
      <point x="446.961" y="559.667"/>
      <point x="413.413" y="532"/>
      <point x="380.08" y="532" type="curve" smooth="yes"/>
      <point x="346.747" y="532"/>
      <point x="326.961" y="559.667"/>
      <point x="334.046" y="593" type="curve" smooth="yes"/>
      <point x="351.746" y="684.111"/>
      <point x="430.676" y="724.556"/>
      <point x="429.104" y="725" type="curve"/>
    </contour>
    <contour>
      <point x="271.49" y="708" type="line"/>
      <point x="257.139" y="690.667"/>
      <point x="248.342" y="669.667"/>
      <point x="240.374" y="651" type="curve"/>
      <point x="265.341" y="643"/>
      <point x="278.714" y="619.667"/>
      <point x="273.046" y="593" type="curve" smooth="yes"/>
      <point x="265.961" y="559.667"/>
      <point x="234.413" y="532"/>
      <point x="201.08" y="532" type="curve" smooth="yes"/>
      <point x="167.747" y="532"/>
      <point x="146.961" y="559.667"/>
      <point x="154.046" y="593" type="curve" smooth="yes"/>
      <point x="172.968" y="684.111"/>
      <point x="250.453" y="724.556"/>
      <point x="250.103" y="725" type="curve"/>
    </contour>
  </outline>
</glyph>
<glyph name="quotedblright" format="1">
  <advance width="354"/>
  <unicode hex="201D"/>
  <outline>
    <contour>
      <point x="170.906" y="550" type="line"/>
      <point x="185.541" y="568.667"/>
      <point x="193.317" y="588"/>
      <point x="200.234" y="608" type="curve"/>
      <point x="176.318" y="614.667"/>
      <point x="161.682" y="638.333"/>
      <point x="167.35" y="665" type="curve" smooth="yes"/>
      <point x="174.152" y="697"/>
      <point x="206.77" y="725"/>
      <point x="240.104" y="725" type="curve" smooth="yes"/>
      <point x="273.437" y="725"/>
      <point x="293.152" y="697"/>
      <point x="286.35" y="665" type="curve" smooth="yes"/>
      <point x="267.546" y="574.444"/>
      <point x="189.612" y="531.889"/>
      <point x="190.08" y="532" type="curve"/>
    </contour>
    <contour>
      <point x="349.906" y="550" type="line"/>
      <point x="364.54" y="568.667"/>
      <point x="374.65" y="588"/>
      <point x="380.234" y="608" type="curve"/>
      <point x="356.318" y="614.667"/>
      <point x="341.682" y="638.333"/>
      <point x="347.35" y="665" type="curve" smooth="yes"/>
      <point x="354.152" y="697"/>
      <point x="385.77" y="725"/>
      <point x="419.103" y="725" type="curve" smooth="yes"/>
      <point x="452.437" y="725"/>
      <point x="474.152" y="697"/>
      <point x="467.35" y="665" type="curve" smooth="yes"/>
      <point x="448.546" y="574.444"/>
      <point x="370.612" y="531.889"/>
      <point x="371.08" y="532" type="curve"/>
    </contour>
  </outline>
</glyph>
<glyph name="perthousand" format="1">
  <advance width="1070"/>
  <unicode hex="2030"/>
  <outline>
    <contour>
      <point x="35" y="0" type="line"/>
      <point x="720.365" y="698" type="line"/>
      <point x="837.365" y="698" type="line"/>
      <point x="149" y="0" type="line"/>
    </contour>
    <contour>
      <point x="338.553" y="713" type="curve" smooth="yes"/>
      <point x="418.646" y="713"/>
      <point x="469.756" y="648.09"/>
      <point x="452.732" y="568" type="curve" smooth="yes"/>
      <point x="435.605" y="487.425"/>
      <point x="356.576" y="422"/>
      <point x="276.699" y="422" type="curve" smooth="yes"/>
      <point x="196.573" y="422"/>
      <point x="145.568" y="487.249"/>
      <point x="162.732" y="568" type="curve" smooth="yes"/>
      <point x="179.718" y="647.914"/>
      <point x="258.643" y="713"/>
    </contour>
    <contour>
      <point x="318.785" y="620" type="curve" smooth="yes"/>
      <point x="290.479" y="620"/>
      <point x="261.749" y="596.308"/>
      <point x="255.732" y="568" type="curve" smooth="yes"/>
      <point x="249.553" y="538.93"/>
      <point x="268.023" y="515"/>
      <point x="296.467" y="515" type="curve" smooth="yes"/>
      <point x="325.649" y="515"/>
      <point x="353.562" y="538.974"/>
      <point x="359.732" y="568" type="curve" smooth="yes"/>
      <point x="365.759" y="596.352"/>
      <point x="348.105" y="620"/>
    </contour>
    <contour>
      <point x="605.878" y="277" type="curve" smooth="yes"/>
      <point x="687.516" y="277"/>
      <point x="738.197" y="212.635"/>
      <point x="720.845" y="131" type="curve" smooth="yes"/>
      <point x="703.853" y="51.061"/>
      <point x="625.505" y="-14"/>
      <point x="544.024" y="-14" type="curve" smooth="yes"/>
      <point x="464.592" y="-14"/>
      <point x="413.828" y="50.9418"/>
      <point x="430.845" y="131" type="curve" smooth="yes"/>
      <point x="448.172" y="212.516"/>
      <point x="526.603" y="277"/>
    </contour>
    <contour>
      <point x="586.11" y="184" type="curve" smooth="yes"/>
      <point x="557.779" y="184"/>
      <point x="528.718" y="158.629"/>
      <point x="522.845" y="131" type="curve" smooth="yes"/>
      <point x="516.807" y="102.592"/>
      <point x="535.381" y="79"/>
      <point x="563.792" y="79" type="curve" smooth="yes"/>
      <point x="593.669" y="79"/>
      <point x="621.823" y="102.667"/>
      <point x="627.845" y="131" type="curve" smooth="yes"/>
      <point x="633.734" y="158.704"/>
      <point x="616.066" y="184"/>
    </contour>
    <contour>
      <point x="951.878" y="277" type="curve" smooth="yes"/>
      <point x="1031.27" y="277"/>
      <point x="1084.2" y="212.635"/>
      <point x="1066.84" y="131" type="curve" smooth="yes"/>
      <point x="1049.85" y="51.061"/>
      <point x="969.255" y="-14"/>
      <point x="890.024" y="-14" type="curve" smooth="yes"/>
      <point x="809.931" y="-14"/>
      <point x="758.821" y="50.9104"/>
      <point x="775.845" y="131" type="curve" smooth="yes"/>
      <point x="793.165" y="212.485"/>
      <point x="871.942" y="277"/>
    </contour>
    <contour>
      <point x="932.11" y="184" type="curve" smooth="yes"/>
      <point x="901.529" y="184"/>
      <point x="874.718" y="158.629"/>
      <point x="868.845" y="131" type="curve" smooth="yes"/>
      <point x="862.807" y="102.592"/>
      <point x="879.131" y="79"/>
      <point x="909.792" y="79" type="curve" smooth="yes"/>
      <point x="939.669" y="79"/>
      <point x="967.823" y="102.667"/>
      <point x="973.845" y="131" type="curve" smooth="yes"/>
      <point x="979.734" y="158.704"/>
      <point x="962.066" y="184"/>
    </contour>
  </outline>
</glyph>
<glyph name="fraction" format="1">
  <advance width="479"/>
  <unicode hex="2044"/>
  <outline>
    <contour>
      <point x="3.76855" y="-114" type="line"/>
      <point x="528.446" y="816" type="line"/>
      <point x="626.446" y="816" type="line"/>
      <point x="101.769" y="-114" type="line"/>
    </contour>
  </outline>
</glyph>
<glyph name="trademark" format="1">
  <advance width="429"/>
  <unicode hex="2122"/>
  <outline>
    <contour>
      <point x="273.799" y="653" type="line"/>
      <point x="244.042" y="513" type="line"/>
      <point x="196.042" y="513" type="line"/>
      <point x="225.799" y="653" type="line"/>
      <point x="162.799" y="653" type="line"/>
      <point x="172.364" y="698" type="line"/>
      <point x="402.364" y="698" type="line"/>
      <point x="418.621" y="591" type="line"/>
      <point x="479.364" y="698" type="line"/>
      <point x="541.364" y="698" type="line"/>
      <point x="502.042" y="513" type="line"/>
      <point x="459.042" y="513" type="line"/>
      <point x="484.123" y="631" type="line"/>
      <point x="418.042" y="513" type="line"/>
      <point x="386.042" y="513" type="line"/>
      <point x="371.123" y="631" type="line"/>
      <point x="346.042" y="513" type="line"/>
      <point x="299.042" y="513" type="line"/>
      <point x="328.799" y="653" type="line"/>
    </contour>
  </outline>
</glyph>
<glyph name="Y_upper_alt" format="1">
  <advance width="493"/>
  <unicode hex="9997"/>
  <outline>
    <contour>
      <point x="367.955" y="315" type="line"/>
      <point x="301" y="0" type="line"/>
      <point x="189" y="0" type="line"/>
      <point x="255.955" y="315" type="line"/>
      <point x="158.364" y="698" type="line"/>
      <point x="274.364" y="698" type="line"/>
      <point x="337.037" y="433" type="line"/>
      <point x="512.364" y="698" type="line"/>
      <point x="629.364" y="698" type="line"/>
    </contour>
  </outline>
</glyph>
<glyph name="uni0326" format="1">
  <advance width="266"/>
  <unicode hex="F6C3"/>
  <outline>
    <contour>
      <point x="50" y="-236" type="line"/>
      <point x="57" y="-227"/>
      <point x="63" y="-217"/>
      <point x="68" y="-207" type="curve"/>
      <point x="72" y="-198"/>
      <point x="76" y="-188"/>
      <point x="81" y="-178" type="curve"/>
      <point x="56" y="-171"/>
      <point x="43" y="-148"/>
      <point x="48" y="-120" type="curve"/>
      <point x="55" y="-88"/>
      <point x="88" y="-61"/>
      <point x="121" y="-61" type="curve" smooth="yes"/>
      <point x="153" y="-61"/>
      <point x="173" y="-88"/>
      <point x="166" y="-120" type="curve" smooth="yes"/>
      <point x="157" y="-165"/>
      <point x="132" y="-198"/>
      <point x="111" y="-220" type="curve" smooth="yes"/>
      <point x="100" y="-231"/>
      <point x="91" y="-240"/>
      <point x="83" y="-245" type="curve"/>
      <point x="74" y="-250"/>
      <point x="70" y="-253"/>
      <point x="71" y="-253" type="curve"/>
    </contour>
  </outline>
</glyph>
<glyph name="fl" format="1">
  <advance width="419"/>
  <unicode hex="FB02"/>
  <outline>
    <contour>
      <point x="391.833" y="592" type="line"/>
      <point x="383.718" y="604"/>
      <point x="368.114" y="609"/>
      <point x="349.447" y="609" type="curve" smooth="yes"/>
      <point x="318.065" y="609"/>
      <point x="277.881" y="592.224"/>
      <point x="268.481" y="548" type="curve" smooth="yes"/>
      <point x="258.066" y="499" type="line"/>
      <point x="345.066" y="499" type="line"/>
      <point x="299.172" y="396" type="line"/>
      <point x="236.172" y="396" type="line"/>
      <point x="152" y="0" type="line"/>
      <point x="39" y="0" type="line"/>
      <point x="148.679" y="516" type="line" smooth="yes"/>
      <point x="171.903" y="625.261"/>
      <point x="245.42" y="708"/>
      <point x="381.49" y="708" type="curve" smooth="yes"/>
      <point x="425.49" y="708"/>
      <point x="466.335" y="701"/>
      <point x="521.601" y="685" type="curve"/>
      <point x="376" y="0" type="line"/>
      <point x="266" y="0" type="line"/>
    </contour>
  </outline>
</glyph>
<glyph name="gamma_gamma" format="1">
  <advance width="849"/>
  <outline>
    <contour>
      <point x="560" y="501" type="line"/>
      <point x="270" y="-55" type="line" smooth="yes"/>
      <point x="226" y="-140"/>
      <point x="185" y="-203"/>
      <point x="76" y="-203" type="curve"/>
      <point x="63" y="-117" type="line"/>
      <point x="110" y="-117"/>
      <point x="131" y="-103"/>
      <point x="159" y="-51" type="curve" smooth="yes"/>
      <point x="204" y="33" type="line"/>
      <point x="175" y="43"/>
      <point x="141" y="74"/>
      <point x="137" y="159" type="curve" smooth="yes"/>
      <point x="120" y="501" type="line"/>
      <point x="247" y="501" type="line"/>
      <point x="235" y="161" type="line" smooth="yes"/>
      <point x="235" y="149"/>
      <point x="236" y="130"/>
      <point x="252" y="128" type="curve"/>
      <point x="444" y="501" type="line"/>
    </contour>
    <contour>
      <point x="922" y="468" type="line"/>
      <point x="883" y="452"/>
      <point x="856" y="437"/>
      <point x="823" y="373" type="curve" smooth="yes"/>
      <point x="600" y="-55" type="line" smooth="yes"/>
      <point x="556" y="-140"/>
      <point x="515" y="-203"/>
      <point x="406" y="-203" type="curve"/>
      <point x="393" y="-117" type="line"/>
      <point x="440" y="-117"/>
      <point x="461" y="-103"/>
      <point x="489" y="-51" type="curve" smooth="yes"/>
      <point x="534" y="33" type="line"/>
      <point x="505" y="43"/>
      <point x="471" y="74"/>
      <point x="467" y="159" type="curve" smooth="yes"/>
      <point x="450" y="501" type="line"/>
      <point x="577" y="501" type="line"/>
      <point x="565" y="161" type="line" smooth="yes"/>
      <point x="565" y="149"/>
      <point x="567" y="132"/>
      <point x="581" y="128" type="curve"/>
      <point x="697" y="357" type="line" smooth="yes"/>
      <point x="754" y="469"/>
      <point x="787" y="502"/>
      <point x="879" y="522" type="curve"/>
    </contour>
  </outline>
</glyph>
<glyph name="gamma_kappa" format="1">
  <advance width="904"/>
  <outline>
    <contour>
      <point x="583" y="426" type="line"/>
      <point x="550" y="425"/>
      <point x="514" y="415"/>
      <point x="481" y="351" type="curve" smooth="yes"/>
      <point x="270" y="-55" type="line" smooth="yes"/>
      <point x="226" y="-140"/>
      <point x="185" y="-203"/>
      <point x="76" y="-203" type="curve"/>
      <point x="63" y="-117" type="line"/>
      <point x="110" y="-117"/>
      <point x="131" y="-103"/>
      <point x="159" y="-51" type="curve" smooth="yes"/>
      <point x="204" y="33" type="line"/>
      <point x="175" y="43"/>
      <point x="141" y="74"/>
      <point x="137" y="159" type="curve" smooth="yes"/>
      <point x="120" y="501" type="line"/>
      <point x="247" y="501" type="line"/>
      <point x="235" y="161" type="line" smooth="yes"/>
      <point x="234" y="139"/>
      <point x="256" y="138"/>
      <point x="256" y="138" type="curve"/>
      <point x="380" y="382" type="line" smooth="yes"/>
      <point x="437" y="493"/>
      <point x="511" y="514"/>
      <point x="579" y="512" type="curve"/>
      <point x="583" y="495" type="line"/>
    </contour>
    <contour>
      <point x="822" y="160" type="line" smooth="yes"/>
      <point x="848" y="109"/>
      <point x="869" y="98"/>
      <point x="894" y="97" type="curve"/>
      <point x="840" y="-1" type="line"/>
      <point x="766" y="-1"/>
      <point x="743" y="55"/>
      <point x="713" y="113" type="curve" smooth="yes"/>
      <point x="657" y="222" type="line"/>
      <point x="622" y="195" type="line"/>
      <point x="581" y="0" type="line"/>
      <point x="470" y="0" type="line"/>
      <point x="579" y="512" type="line"/>
      <point x="687" y="500" type="line"/>
      <point x="652" y="334" type="line"/>
      <point x="841" y="501" type="line"/>
      <point x="978" y="501" type="line"/>
      <point x="752" y="300" type="line"/>
    </contour>
  </outline>
</glyph>
<glyph name="lambda_lambda" format="1">
  <advance width="835"/>
  <outline>
    <contour>
      <point x="453" y="-1" type="line"/>
      <point x="333" y="-1" type="line"/>
      <point x="308" y="359" type="line"/>
      <point x="307" y="359"/>
      <point x="302" y="357"/>
      <point x="300" y="353" type="curve" smooth="yes"/>
      <point x="152" y="-1" type="line"/>
      <point x="24" y="-1" type="line"/>
      <point x="204" y="355" type="line" smooth="yes"/>
      <point x="248" y="444"/>
      <point x="268" y="466"/>
      <point x="300" y="479" type="curve"/>
      <point x="293" y="551" type="line" smooth="yes"/>
      <point x="289" y="600"/>
      <point x="266" y="616"/>
      <point x="222" y="616" type="curve"/>
      <point x="272" y="702" type="line"/>
      <point x="376" y="702"/>
      <point x="394" y="646"/>
      <point x="402" y="556" type="curve" smooth="yes"/>
    </contour>
    <contour>
      <point x="759" y="128" type="line" smooth="yes"/>
      <point x="764" y="73"/>
      <point x="775" y="59"/>
      <point x="821" y="31" type="curve"/>
      <point x="755" y="-22" type="line"/>
      <point x="671" y="-2"/>
      <point x="649" y="33"/>
      <point x="641" y="143" type="curve" smooth="yes"/>
      <point x="626" y="359" type="line"/>
      <point x="625" y="359"/>
      <point x="620" y="357"/>
      <point x="618" y="353" type="curve" smooth="yes"/>
      <point x="470" y="-1" type="line"/>
      <point x="342" y="-1" type="line"/>
      <point x="522" y="355" type="line" smooth="yes"/>
      <point x="567" y="444"/>
      <point x="586" y="466"/>
      <point x="618" y="479" type="curve"/>
      <point x="611" y="551" type="line" smooth="yes"/>
      <point x="607" y="600"/>
      <point x="584" y="616"/>
      <point x="540" y="616" type="curve"/>
      <point x="590" y="702" type="line"/>
      <point x="694" y="702"/>
      <point x="712" y="646"/>
      <point x="720" y="556" type="curve" smooth="yes"/>
    </contour>
  </outline>
</glyph>
<glyph name="t_t" format="1">
  <advance width="478"/>
  <outline>
    <component base="t" xOffset="203"/>
    <contour>
      <point x="182.068" y="132.37" type="line" smooth="yes"/>
      <point x="172.474" y="87.2436"/>
      <point x="196.991" y="75.21"/>
      <point x="243.12" y="75.21" type="curve"/>
      <point x="191.266" y="-13.0364" type="line"/>
      <point x="90.4096" y="-11.0308"/>
      <point x="49.7136" y="38.1064"/>
      <point x="69.7544" y="132.37" type="curve" smooth="yes"/>
      <point x="190.426" y="699.954" type="line"/>
      <point x="302.739" y="699.954" type="line"/>
      <point x="260.312" y="500.397" type="line"/>
      <point x="355.578" y="500.397" type="line"/>
      <point x="335.048" y="399.114" type="line"/>
      <point x="238.779" y="399.114" type="line"/>
    </contour>
  </outline>
</glyph>
<glyph name="uni030B" format="1">
  <advance width="266"/>
  <outline>
    <contour>
      <point x="219" y="569" type="line"/>
      <point x="175" y="569" type="line"/>
      <point x="230" y="685" type="line"/>
      <point x="235" y="697"/>
      <point x="249" y="710"/>
      <point x="262" y="716" type="curve" smooth="yes"/>
      <point x="275" y="722"/>
      <point x="290" y="724"/>
      <point x="302" y="716" type="curve"/>
      <point x="314" y="709"/>
      <point x="318" y="697"/>
      <point x="316" y="684" type="curve" smooth="yes"/>
      <point x="314" y="671"/>
      <point x="306" y="657"/>
      <point x="294" y="645" type="curve" smooth="yes"/>
    </contour>
    <contour>
      <point x="331" y="569" type="line"/>
      <point x="287" y="569" type="line"/>
      <point x="342" y="685" type="line"/>
      <point x="347" y="698"/>
      <point x="360" y="711"/>
      <point x="373" y="717" type="curve" smooth="yes"/>
      <point x="386" y="723"/>
      <point x="402" y="724"/>
      <point x="414" y="716" type="curve"/>
      <point x="426" y="709"/>
      <point x="431" y="697"/>
      <point x="429" y="684" type="curve" smooth="yes"/>
      <point x="427" y="671"/>
      <point x="419" y="657"/>
      <point x="407" y="645" type="curve" smooth="yes"/>
    </contour>
  </outline>
</glyph>
